<svg viewBox="0 0 21 5.73242" xmlns="http://www.w3.org/2000/svg" xmlns:xlink="http://www.w3.org/1999/xlink" width="21.000000" height="5.732422" fill="none" customFrame="#000000">
	<path id="Arrow 2" d="M0 -0.5L20 -0.5L20 0.5L0 0.5L0 -0.5ZM16.0359 0L16.0359 -2.86603L21 1.49012e-07L16.0359 2.86603L16.0359 -4.76837e-07L17.0359 4.76837e-07L17.0359 2L16.5359 2L16.2859 1.56699L19.75 -0.433013L20 0L19.75 0.433013L16.2859 -1.56699L16.5359 -2L17.0359 -2L17.0359 0L16.0359 0ZM16.5359 0L16.5359 -2L20 0L16.5359 2L16.5359 0Z" fill="rgb(0,0,0)" fill-rule="nonzero" transform="matrix(-1,8.74228e-08,8.74228e-08,1,21,2.86621)" />
</svg>
