<svg viewBox="0 0 11.5864 10.5859" xmlns="http://www.w3.org/2000/svg" xmlns:xlink="http://www.w3.org/1999/xlink" width="11.586426" height="10.585938" fill="none" customFrame="#000000">
	<path id="Comments" d="M1.68371 10.0386C1.6839 10.0825 1.696 10.1256 1.71885 10.1638C1.7417 10.202 1.77452 10.2339 1.81413 10.2565C1.85375 10.2791 1.89883 10.2917 1.94502 10.2929C1.99121 10.2941 2.03694 10.284 2.07781 10.2635C2.78371 9.91086 4.20968 9.19441 4.26456 9.13369C4.76462 9.25169 5.27799 9.31105 5.79321 9.31044C8.83063 9.31044 11.2932 7.29197 11.2932 4.80171C11.2932 2.31144 8.833 0.292969 5.79321 0.292969C2.75343 0.292969 0.293213 2.30964 0.293213 4.79991C0.293213 5.94182 0.813643 6.98524 1.66526 7.7795C1.65769 7.85415 1.67472 9.3055 1.68371 10.0386Z" fill-rule="nonzero" stroke="rgb(0,0,0)" stroke-width="0.586206853" />
</svg>
