<svg viewBox="0 0 10.5752 9.66016" xmlns="http://www.w3.org/2000/svg" xmlns:xlink="http://www.w3.org/1999/xlink" width="10.575195" height="9.660156" fill="none" customFrame="#000000">
	<path id="Likes" d="M9.93935 4.20376C10.1212 3.88854 10.2349 3.5387 10.2732 3.17681C10.3114 2.81491 10.2733 2.44903 10.1614 2.10277C10.0494 1.75652 9.86603 1.43758 9.62312 1.16657C9.38021 0.895562 9.08316 0.678491 8.75113 0.529387C8.43587 0.387128 8.095 0.310394 7.74918 0.303839C7.40336 0.297285 7.05979 0.361051 6.73937 0.491262C6.41894 0.621472 6.12834 0.815412 5.88516 1.06132C5.64197 1.30723 5.45127 1.59998 5.32468 1.92179C5.19076 1.59696 4.99337 1.3021 4.74406 1.05449C4.49475 0.806881 4.19853 0.611488 3.87275 0.479762C3.54697 0.348036 3.1982 0.282623 2.84681 0.287348C2.49543 0.292074 2.14853 0.366842 1.82641 0.507281C1.4938 0.655707 1.1961 0.872419 0.952702 1.14334C0.709301 1.41425 0.525627 1.73332 0.413576 2.07982C0.301524 2.42633 0.263598 2.79253 0.302296 3.15463C0.340995 3.51673 0.455444 3.86666 0.638192 4.18167C1.90929 6.41945 4.98756 9.00531 5.32468 9.28711C5.6618 9.01084 8.64062 6.44153 9.93935 4.20376Z" fill-rule="nonzero" stroke="rgb(0,0,0)" stroke-width="0.574712694" />
</svg>
