<svg width="16" height="15" viewBox="0 0 16 15" fill="none" xmlns="http://www.w3.org/2000/svg">
<path d="M8.05191 14C8.52388 13.6009 12.6942 9.88973 14.5125 6.65738C14.7671 6.20207 14.9263 5.69674 14.9798 5.174C15.0334 4.65127 14.98 4.12278 14.8233 3.62263C14.6665 3.12247 14.4098 2.66179 14.0697 2.27034C13.7297 1.87888 13.3138 1.56533 12.8489 1.34996C12.4076 1.14447 11.9304 1.03363 11.4462 1.02417C10.9621 1.0147 10.4811 1.1068 10.0325 1.29489C9.58388 1.48297 9.17704 1.7631 8.83658 2.1183C8.49612 2.4735 8.22915 2.89636 8.05191 3.36121C7.86443 2.89201 7.58808 2.4661 7.23905 2.10844C6.89001 1.75078 6.47531 1.46855 6.01921 1.27828C5.56312 1.08801 5.07484 0.99352 4.5829 1.00035C4.09097 1.00717 3.6053 1.11517 3.15434 1.31803C2.68868 1.53242 2.27191 1.84545 1.93115 2.23677C1.59038 2.6281 1.33324 3.08897 1.17637 3.58948C1.0195 4.08998 0.9664 4.61894 1.02058 5.14198C1.07476 5.66501 1.23498 6.17046 1.49083 6.62547C3.27037 9.85782 7.57995 13.593 8.05191 14Z" stroke="black" stroke-miterlimit="10"/>
</svg>
