<svg viewBox="0 0 10 9" xmlns="http://www.w3.org/2000/svg" xmlns:xlink="http://www.w3.org/1999/xlink" width="10.000000" height="9.000000" fill="none" customFrame="#000000">
	<path id="Likes" d="M5.03708 9C5.3742 8.72373 8.35302 6.15442 9.65175 3.91665C9.83363 3.60143 9.94735 3.25159 9.98559 2.8897C10.0238 2.5278 9.98574 2.16192 9.87377 1.81566C9.7618 1.46941 9.57843 1.15047 9.33552 0.879463C9.09261 0.608452 8.79556 0.391381 8.46353 0.242278C8.14828 0.100018 7.8074 0.0232848 7.46158 0.0167301C7.11576 0.0101753 6.77219 0.0739419 6.45177 0.204152C6.13134 0.334363 5.84074 0.528302 5.59756 0.774209C5.35437 1.02012 5.16368 1.31287 5.03708 1.63468C4.90317 1.30985 4.70577 1.01499 4.45646 0.76738C4.20715 0.519771 3.91093 0.324378 3.58515 0.192652C3.25937 0.0609267 2.9106 -0.00448647 2.55922 0.000238916C2.20783 0.0049643 1.86093 0.0797327 1.53881 0.220171C1.2062 0.368598 0.908506 0.58531 0.665105 0.856227C0.421703 1.12714 0.238029 1.44621 0.125978 1.79271C0.0139268 2.13922 -0.0239998 2.50542 0.0146986 2.86752C0.053397 3.22962 0.167846 3.57955 0.350594 3.89456C1.6217 6.13234 4.69996 8.71821 5.03708 9Z" fill="rgb(0,0,0)" fill-rule="nonzero" />
	<path id="Likes" d="M4.68887 1.03117C4.6175 0.938383 4.53989 0.850236 4.45646 0.76738C4.20715 0.519771 3.91093 0.324378 3.58515 0.192652C3.25937 0.0609267 2.9106 -0.00448647 2.55922 0.000238916C2.20783 0.0049643 1.86093 0.0797327 1.53881 0.220171C1.2062 0.368598 0.908506 0.58531 0.665105 0.856227C0.421703 1.12714 0.238029 1.44621 0.125978 1.79271C0.0139268 2.13922 -0.0239998 2.50542 0.0146986 2.86752C0.053397 3.22962 0.167846 3.57955 0.350594 3.89456C1.6217 6.13234 4.69996 8.71821 5.03708 9C5.3742 8.72373 8.35302 6.15442 9.65175 3.91665C9.83363 3.60143 9.94735 3.25159 9.98559 2.8897C10.0238 2.5278 9.98574 2.16192 9.87377 1.81566C9.7618 1.46941 9.57843 1.15047 9.33552 0.879463C9.09261 0.608452 8.79556 0.391381 8.46353 0.242278C8.14828 0.100018 7.8074 0.0232848 7.46158 0.0167301C7.11576 0.0101753 6.77219 0.0739419 6.45177 0.204152C6.13134 0.334363 5.84074 0.528302 5.59756 0.774209C5.51861 0.854039 5.4452 0.938805 5.37771 1.0279C5.23732 1.21325 5.12258 1.41734 5.03708 1.63468C4.94798 1.41855 4.83077 1.21568 4.68887 1.03117ZM5.03524 8.24405Q4.23888 7.55534 3.44853 6.77246Q1.61415 4.95543 0.847711 3.60617Q0.739582 3.41978 0.67415 3.21945Q0.608965 3.01987 0.586157 2.80645Q0.563368 2.59321 0.584855 2.38453Q0.606456 2.17474 0.67281 1.96955Q0.73902 1.7648 0.844049 1.58241Q0.948965 1.40021 1.09262 1.24032Q1.25519 1.05937 1.45004 0.925308Q1.59974 0.822307 1.7685 0.746992Q1.95927 0.663818 2.1587 0.620797Q2.35848 0.577703 2.56694 0.5749Q2.77528 0.572098 2.97602 0.609757Q3.17666 0.647398 3.36972 0.725459Q3.56295 0.803591 3.73349 0.916115Q3.9038 1.02848 4.05147 1.17515Q4.19927 1.32194 4.31285 1.49162Q4.42639 1.66123 4.50575 1.85373L5.04957 3.17286L5.5719 1.84507Q5.64599 1.65672 5.75411 1.4905Q5.86292 1.32321 6.0062 1.17833Q6.14907 1.03385 6.31464 0.92338Q6.48006 0.813008 6.66813 0.736583Q6.85625 0.660137 7.05182 0.623825Q7.24752 0.587489 7.45069 0.591339Q7.64749 0.59507 7.83609 0.636319Q8.03674 0.680203 8.2281 0.766552Q8.42432 0.85467 8.59421 0.978822Q8.76404 1.10293 8.90756 1.26305Q9.05135 1.42348 9.15631 1.60621Q9.2609 1.78828 9.32694 1.9925Q9.39311 2.19711 9.41488 2.40635Q9.43665 2.61551 9.41406 2.8293Q9.39145 3.04327 9.32635 3.24342Q9.26156 3.44264 9.15469 3.62817L9.15396 3.62943Q8.36813 4.98285 6.57585 6.78909Q5.97498 7.39464 5.33161 7.97816Q5.16923 8.12543 5.03524 8.24405Z" fill="rgb(0,0,0)" fill-rule="evenodd" />
</svg>
