<svg width="300.000000" height="82.799805" viewBox="0 0 300 82.7998" fill="none" xmlns="http://www.w3.org/2000/svg" xmlns:xlink="http://www.w3.org/1999/xlink">
	<desc>
			Created with Pixso.
	</desc>
	<defs/>
	<rect id="Container" rx="3.599997" width="300.000000" height="82.800003" fill="#FFFFFF" fill-opacity="1.000000"/>
	<rect id="Container" x="0.500000" y="0.500000" rx="3.599997" width="299.000000" height="81.800003" stroke="#000000" stroke-opacity="1.000000" stroke-width="1.000000"/>
	<line id="Line 33" x1="3.600098" y1="3.451172" x2="296.400146" y2="3.451172" stroke="#000000" stroke-opacity="1.000000" stroke-width="0.300000"/>
	<line id="Line 35" x1="3.600098" y1="76.050781" x2="296.400146" y2="76.050781" stroke="#000000" stroke-opacity="1.000000" stroke-width="0.300000"/>
	<line id="Line 34" x1="3.600098" y1="6.449219" x2="296.400146" y2="6.449219" stroke="#000000" stroke-opacity="1.000000" stroke-width="0.300000"/>
	<line id="Line 36" x1="3.600098" y1="79.048828" x2="296.400146" y2="79.048828" stroke="#000000" stroke-opacity="1.000000" stroke-width="0.300000"/>
	<line id="Line 37" x1="296.549438" y1="3.300781" x2="296.548096" y2="79.199219" stroke="#000000" stroke-opacity="1.000000" stroke-width="0.300000"/>
	<line id="Line 38" x1="293.550903" y1="3.300781" x2="293.550903" y2="79.199219" stroke="#000000" stroke-opacity="1.000000" stroke-width="0.300000"/>
	<line id="Line 40" x1="6.750000" y1="3.600586" x2="6.750000" y2="79.499023" stroke="#000000" stroke-opacity="1.000000" stroke-width="0.300000"/>
	<line id="Line 39" x1="3.750000" y1="3.600586" x2="3.750000" y2="79.499023" stroke="#000000" stroke-opacity="1.000000" stroke-width="0.300000"/>
	<path id="Vector 538" d="" fill="#000000" fill-opacity="1.000000" fill-rule="nonzero"/>
	<path id="Vector 538" d="M15.91 9.84C15.54 9.56 14.9 9.16 15.22 9.84C15.63 10.7 16.86 10.34 16.71 9.84C16.57 9.35 15.19 7.12 14.33 9.09C13.47 11.06 15.91 11.97 16.31 11.83C16.64 11.71 18.41 10.68 19.86 10.86C20.17 10.9 20.47 10.99 20.74 11.16C21.39 11.59 21.77 12.1 22.03 12.51C22.36 13.04 22.49 13.4 22.76 13.22M19.86 10.86C20.15 11.09 20.74 11.68 20.74 12.21M22.03 12.51C21.47 13.72 20.06 15.72 18.89 14.08C17.43 12.02 20.21 12.48 20.31 12.76C20.42 13.04 20.02 14.06 19.68 13.55" stroke="#000000" stroke-opacity="1.000000" stroke-width="0.737493"/>
	<path id="Vector 539" d="" fill="#000000" fill-opacity="1.000000" fill-rule="nonzero"/>
	<path id="Vector 539" d="M10.29 15.85C9.99 15.5 9.57 14.86 10.27 15.17C11.14 15.55 10.8 16.79 10.31 16.66C9.81 16.53 7.55 15.2 9.49 14.29C11.44 13.38 12.41 15.8 12.28 16.21C12.17 16.54 11.19 18.33 11.4 19.78C11.44 20.09 11.55 20.39 11.72 20.65C12.17 21.29 12.69 21.66 13.11 21.91C13.64 22.22 14.01 22.34 13.83 22.61M11.4 19.78C11.64 20.06 12.24 20.63 12.78 20.62M13.11 21.91C14.3 21.32 16.26 19.86 14.59 18.73C12.5 17.33 13.03 20.09 13.31 20.19C13.59 20.28 14.6 19.85 14.08 19.53" stroke="#000000" stroke-opacity="1.000000" stroke-width="0.737493"/>
	<path id="Vector" d="M8.73 10.99C8.73 10.99 10.64 8.9 10.92 8.6C11.15 8.35 11.7 8.39 11.7 8.63C11.7 8.69 11.67 8.75 11.6 8.83C11.25 9.23 9.16 11.37 8.97 11.55C8.84 11.67 8.52 11.61 8.52 11.38C8.52 11.28 8.58 11.15 8.73 10.99ZM9.67 9.39C9.49 10.12 8.76 9.83 8.53 9.67C8.43 9.6 8.34 9.42 8.34 9.24C8.34 9.02 8.46 8.78 8.8 8.68C9.12 8.62 9.7 8.65 9.7 9.16C9.7 9.23 9.69 9.3 9.67 9.39ZM19.16 9C19.26 8.9 19.55 8.89 19.58 9.14C19.58 9.16 19.58 9.17 19.58 9.19C19.58 9.46 19.29 9.45 19.23 9.39C19.18 9.34 19.11 9.22 19.11 9.12C19.11 9.08 19.12 9.03 19.16 9ZM11.02 10.03C11.02 9.64 11.28 9.37 11.48 9.25C11.46 9.33 11.45 9.41 11.45 9.5C11.45 9.83 11.59 10.21 11.73 10.58C11.81 10.79 11.88 11.01 11.94 11.21C11.96 11.29 11.97 11.37 11.97 11.43C11.97 11.93 11.43 12.07 10.92 11.93C10.34 11.78 9.8 11.44 9.36 11.42C9.81 10.72 10.5 10.99 10.8 11.21C10.54 10.98 10.48 10.62 10.48 10.4C10.48 10.37 10.48 10.34 10.48 10.32C10.68 10.19 11.13 10.57 11.32 10.77C11.1 10.5 11.02 10.25 11.02 10.03ZM12.55 9.53C12.66 9.42 12.95 9.41 12.97 9.67C12.98 9.68 12.98 9.7 12.98 9.72C12.98 9.98 12.69 9.98 12.62 9.91C12.57 9.87 12.51 9.75 12.51 9.65C12.51 9.6 12.52 9.56 12.55 9.53ZM11.17 12.42C11.45 12.23 12.11 11.71 12.45 11.21C12.78 10.72 13.06 11.01 13.15 11.21C13.15 11.22 13.15 11.23 13.15 11.23C13.15 11.28 13.12 11.39 12.97 11.55C12.81 11.73 12.1 12.51 11.76 12.88C11.7 12.93 11.53 12.99 11.32 12.88C11.17 12.8 11.12 12.67 11.12 12.57C11.12 12.5 11.14 12.45 11.17 12.42ZM13.22 11.58C13.75 11.24 14.45 11.6 14.73 11.83L14.64 12.09C14.44 12.04 14.13 11.96 13.92 11.91C13.82 11.86 13.73 11.83 13.69 11.83C13.69 11.83 13.68 11.83 13.68 11.83C13.68 11.84 13.78 11.87 13.92 11.91C14.1 11.99 14.34 12.13 14.48 12.21L14.2 12.51L13.34 12.09L14.05 12.74L13.92 12.88C13.63 12.67 13.04 12.28 13.04 12.42C13.04 12.57 13.48 12.95 13.69 13.13L13.34 13.43L12.62 12.88C12.68 13.25 13.04 13.48 13.22 13.55L13.04 13.81L12.45 13.21C12.52 13.48 12.75 13.84 12.85 13.99L12.62 14.25L12.24 13.74C12.24 14.04 12.45 14.33 12.55 14.44L12.24 14.88C12 14.7 11.92 14.36 11.92 14.01C11.92 13.62 12.01 13.22 12.1 12.97C12.25 12.65 12.69 11.92 13.22 11.58ZM12.32 14.88C12.36 14.73 14.67 12.29 14.99 12.09C15.27 11.99 15.5 12.13 15.57 12.21C14.32 12.72 13.04 14.61 12.55 15.5C12.43 15.3 12.32 15.1 12.32 14.94C12.32 14.92 12.32 14.9 12.32 14.88ZM15.68 12.28C15.84 12.28 16.44 12.33 16.61 12.51C16.61 12.51 18.9 14.24 18.9 14.51C18.9 14.52 18.9 14.53 18.89 14.53C18.78 14.63 18.38 15.6 18.38 16.42C18.38 16.98 18.56 17.46 19.16 17.53L17.91 18.76C17.7 18.2 16.87 17.41 15.17 18.76C14.27 18.2 12.59 16.9 12.59 15.96C12.59 15.89 12.6 15.83 12.62 15.76C12.9 14.82 14.78 13.05 15.68 12.28ZM9.55 12.74C9.66 12.64 9.94 12.63 9.97 12.88C9.97 12.9 9.97 12.91 9.97 12.93C9.97 13.2 9.69 13.19 9.62 13.13C9.57 13.08 9.51 12.96 9.51 12.86C9.51 12.81 9.52 12.77 9.55 12.74ZM19.86 16.11C19.96 16.01 20.25 16 20.28 16.25C20.28 16.27 20.28 16.29 20.28 16.3C20.28 16.57 19.99 16.57 19.93 16.5C19.88 16.45 19.81 16.33 19.81 16.23C19.81 16.19 19.83 16.14 19.86 16.11ZM18.14 18.76L19.33 17.62C19.56 17.53 20.11 17.44 20.42 17.82C20.25 17.75 19.84 17.69 19.58 17.97C19.31 18.25 18.77 18.82 18.54 19.06C18.49 19.18 18.42 19.37 18.42 19.54C18.42 19.7 18.47 19.83 18.63 19.89C18.38 19.82 18 19.61 18 19.21C18 19.08 18.04 18.93 18.14 18.76ZM9.48 19.06C9.59 18.96 9.87 18.95 9.9 19.2C9.9 19.22 9.9 19.24 9.9 19.25C9.9 19.52 9.62 19.51 9.55 19.45C9.5 19.4 9.44 19.28 9.44 19.18C9.44 19.14 9.45 19.09 9.48 19.06ZM16.61 19.75C16.71 19.64 17 19.63 17.03 19.89C17.03 19.9 17.03 19.92 17.03 19.93C17.03 20.2 16.75 20.2 16.68 20.13C16.63 20.08 16.56 19.97 16.56 19.87C16.56 19.82 16.58 19.78 16.61 19.75Z" fill="#000000" fill-opacity="1.000000" fill-rule="evenodd"/>
	<path id="Vector" d="M10.92 8.6C11.2 8.3 11.96 8.42 11.6 8.83C11.25 9.23 9.16 11.37 8.97 11.55C8.78 11.72 8.22 11.54 8.73 10.99C8.73 10.99 10.64 8.9 10.92 8.6ZM8.8 8.68C8.18 8.87 8.3 9.51 8.53 9.67C8.76 9.83 9.49 10.12 9.67 9.39C9.86 8.66 9.16 8.62 8.8 8.68ZM11.32 10.77C11.13 10.57 10.68 10.19 10.48 10.32C10.46 10.5 10.5 10.95 10.8 11.21C10.5 10.99 9.81 10.72 9.36 11.42C9.8 11.44 10.34 11.78 10.92 11.93C11.5 12.09 12.11 11.88 11.94 11.21C11.76 10.55 11.33 9.8 11.48 9.25C11.17 9.43 10.71 10 11.32 10.77ZM12.97 9.67C13.01 9.98 12.69 9.98 12.62 9.91C12.55 9.84 12.45 9.63 12.55 9.53C12.66 9.42 12.95 9.41 12.97 9.67ZM9.97 12.88C10.01 13.2 9.69 13.2 9.62 13.13C9.55 13.06 9.45 12.85 9.55 12.74C9.66 12.64 9.94 12.63 9.97 12.88ZM19.58 9.14C19.61 9.46 19.3 9.46 19.23 9.39C19.16 9.32 19.05 9.11 19.16 9C19.26 8.9 19.55 8.89 19.58 9.14ZM9.9 19.2C9.94 19.52 9.62 19.52 9.55 19.45C9.48 19.38 9.37 19.17 9.48 19.06C9.59 18.96 9.87 18.95 9.9 19.2ZM20.28 16.25C20.31 16.57 20 16.57 19.93 16.5C19.86 16.43 19.75 16.22 19.86 16.11C19.96 16.01 20.25 16 20.28 16.25ZM17.03 19.89C17.07 20.2 16.75 20.2 16.68 20.13C16.61 20.06 16.5 19.85 16.61 19.75C16.71 19.64 17 19.63 17.03 19.89ZM12.45 11.21C12.78 10.72 13.06 11.01 13.15 11.21C13.16 11.25 13.14 11.36 12.97 11.55C12.81 11.73 12.1 12.51 11.76 12.88C11.7 12.93 11.53 12.99 11.32 12.88C11.06 12.74 11.1 12.47 11.17 12.42C11.45 12.23 12.11 11.71 12.45 11.21ZM13.92 11.91C14.13 11.96 14.44 12.04 14.64 12.09L14.73 11.83C14.45 11.6 13.75 11.24 13.22 11.58C12.69 11.92 12.25 12.65 12.1 12.97C11.94 13.45 11.75 14.5 12.24 14.88L12.55 14.44C12.45 14.33 12.24 14.04 12.24 13.74L12.62 14.25L12.85 13.99C12.75 13.84 12.52 13.48 12.45 13.21L13.04 13.81L13.22 13.55C13.04 13.48 12.68 13.25 12.62 12.88L13.34 13.43L13.69 13.13C13.48 12.95 13.04 12.57 13.04 12.42C13.04 12.28 13.63 12.67 13.92 12.88L14.05 12.74L13.34 12.09L14.2 12.51L14.48 12.21C14.34 12.13 14.1 11.99 13.92 11.91C13.82 11.86 13.73 11.83 13.69 11.83C13.65 11.83 13.75 11.86 13.92 11.91M12.32 14.88C12.29 15.04 12.41 15.27 12.55 15.5C13.04 14.61 14.32 12.72 15.57 12.21C15.5 12.13 15.27 11.99 14.99 12.09C14.67 12.29 12.36 14.73 12.32 14.88ZM16.61 12.51C16.61 12.51 19.09 14.37 18.89 14.53C18.7 14.69 17.69 17.35 19.16 17.53L17.91 18.76C17.7 18.2 16.87 17.41 15.17 18.76C14.2 18.16 12.34 16.7 12.62 15.76C12.9 14.82 14.78 13.05 15.68 12.28C15.84 12.28 16.44 12.33 16.61 12.51ZM19.33 17.62C19.56 17.53 20.11 17.44 20.42 17.82C20.25 17.75 19.84 17.69 19.58 17.97C19.31 18.25 18.77 18.82 18.54 19.06C18.44 19.29 18.31 19.78 18.63 19.89C18.3 19.8 17.74 19.45 18.14 18.76L19.33 17.62Z" stroke="#000000" stroke-opacity="1.000000" stroke-width="0.035119"/>
	<path id="Vector 531" d="" fill="#000000" fill-opacity="1.000000" fill-rule="nonzero"/>
	<path id="Vector 531" d="M19.7 18.31C24.53 18.65 34.62 17.73 37.28 12C39.93 6.27 52.85 9.62 58.98 12C62.5 14.12 70.95 16.93 76.63 11.2" stroke="#000000" stroke-opacity="1.000000" stroke-width="0.737493"/>
	<path id="Vector 532" d="M19.07 19.22C20.69 21.68 21.96 27.69 15.75 33.9C8.99 40.65 12.14 37.5 10.04 39.9" stroke="#000000" stroke-opacity="1.000000" stroke-width="0.737493"/>
	<path id="Vector 533" d="M77.17 10.74C77.76 10.09 79.52 8.96 81.89 9.63C81.27 10.55 79.46 12.05 77.17 10.74Z" fill="#000000" fill-opacity="1.000000" fill-rule="nonzero"/>
	<path id="Vector 533" d="M76.38 11.42L77.17 10.74C77.76 10.09 79.52 8.96 81.89 9.63C81.27 10.55 79.46 12.05 77.17 10.74" stroke="#000000" stroke-opacity="1.000000" stroke-width="0.737493"/>
	<path id="Vector 534" d="M75.17 13.41C77.24 13.13 78.11 13.32 79.66 15.24C78.63 15.63 76.28 15.8 75.17 13.41Z" fill="#000000" fill-opacity="1.000000" fill-rule="nonzero"/>
	<path id="Vector 534" d="M74.5 13.13L75.17 13.41C77.24 13.13 78.11 13.32 79.66 15.24C78.63 15.63 76.28 15.8 75.17 13.41" stroke="#000000" stroke-opacity="1.000000" stroke-width="0.280950"/>
	<path id="Vector 535" d="M68.22 15.69C70.28 15.4 71.16 15.59 72.71 17.52C71.67 17.9 69.33 18.08 68.22 15.69Z" fill="#000000" fill-opacity="1.000000" fill-rule="nonzero"/>
	<path id="Vector 535" d="M67.94 14.92L68.22 15.69C69.33 18.08 71.67 17.9 72.71 17.52C71.16 15.59 70.28 15.4 68.22 15.69" stroke="#000000" stroke-opacity="1.000000" stroke-width="0.280950"/>
	<path id="Vector 540" d="M62.37 14.5C64.31 15.25 64.99 15.84 65.42 18.27C64.32 18.11 62.19 17.13 62.37 14.5Z" fill="#000000" fill-opacity="1.000000" fill-rule="nonzero"/>
	<path id="Vector 540" d="M61.53 13.46L62.37 14.5C64.31 15.25 64.99 15.84 65.42 18.27C64.32 18.11 62.19 17.13 62.37 14.5" stroke="#000000" stroke-opacity="1.000000" stroke-width="0.280950"/>
	<path id="Vector 541" d="M59.71 13.32C61.24 14.74 61.65 15.54 61.14 17.96C60.19 17.4 58.56 15.7 59.71 13.32Z" fill="#000000" fill-opacity="1.000000" fill-rule="nonzero"/>
	<path id="Vector 541" d="M59.31 12.05L59.71 13.32C61.24 14.74 61.65 15.54 61.14 17.96C60.19 17.4 58.56 15.7 59.71 13.32" stroke="#000000" stroke-opacity="1.000000" stroke-width="0.280950"/>
	<path id="Vector 542" d="M56.24 10.27C57.87 8.96 58.72 8.67 61.03 9.52C60.35 10.39 58.42 11.74 56.24 10.27Z" fill="#000000" fill-opacity="1.000000" fill-rule="nonzero"/>
	<path id="Vector 542" d="M54.92 10.48L56.24 10.27C57.87 8.96 58.72 8.67 61.03 9.52C60.35 10.39 58.42 11.74 56.24 10.27" stroke="#000000" stroke-opacity="1.000000" stroke-width="0.280950"/>
	<path id="Vector 543" d="M54.41 11.1C56.29 12.01 56.92 12.65 57.14 15.11C56.06 14.86 54.01 13.7 54.41 11.1Z" fill="#000000" fill-opacity="1.000000" fill-rule="nonzero"/>
	<path id="Vector 543" d="M53.66 9.99L54.41 11.1C56.29 12.01 56.92 12.65 57.14 15.11C56.06 14.86 54.01 13.7 54.41 11.1" stroke="#000000" stroke-opacity="1.000000" stroke-width="0.280950"/>
	<path id="Vector 544" d="M52.1 9.11C53.55 7.61 54.35 7.21 56.76 7.77C56.18 8.71 54.45 10.3 52.1 9.11Z" fill="#000000" fill-opacity="1.000000" fill-rule="nonzero"/>
	<path id="Vector 544" d="M50.81 9.48L52.1 9.11C53.55 7.61 54.35 7.21 56.76 7.77C56.18 8.71 54.45 10.3 52.1 9.11" stroke="#000000" stroke-opacity="1.000000" stroke-width="0.280950"/>
	<path id="Vector 545" d="M49.05 10.03C51.09 10.5 51.84 10.99 52.61 13.33C51.5 13.33 49.25 12.66 49.05 10.03Z" fill="#000000" fill-opacity="1.000000" fill-rule="nonzero"/>
	<path id="Vector 545" d="M48.07 9.13L49.05 10.03C51.09 10.5 51.84 10.99 52.61 13.33C51.5 13.33 49.25 12.66 49.05 10.03" stroke="#000000" stroke-opacity="1.000000" stroke-width="0.280950"/>
	<path id="Vector 546" d="M45.24 9.84C47.27 10.31 48.03 10.8 48.79 13.14C47.69 13.14 45.43 12.47 45.24 9.84Z" fill="#000000" fill-opacity="1.000000" fill-rule="nonzero"/>
	<path id="Vector 546" d="M44.26 8.94L45.24 9.84C47.27 10.31 48.03 10.8 48.79 13.14C47.69 13.14 45.43 12.47 45.24 9.84" stroke="#000000" stroke-opacity="1.000000" stroke-width="0.280950"/>
	<path id="Vector 547" d="M41.35 10.14C43.43 10.28 44.25 10.64 45.38 12.84C44.29 13.01 41.96 12.71 41.35 10.14Z" fill="#000000" fill-opacity="1.000000" fill-rule="nonzero"/>
	<path id="Vector 547" d="M40.24 9.4L41.35 10.14C43.43 10.28 44.25 10.64 45.38 12.84C44.29 13.01 41.96 12.71 41.35 10.14" stroke="#000000" stroke-opacity="1.000000" stroke-width="0.280950"/>
	<path id="Vector 548" d="M38.72 12.35C40.76 11.91 41.65 12.02 43.35 13.82C42.35 14.28 40.02 14.65 38.72 12.35Z" fill="#000000" fill-opacity="1.000000" fill-rule="nonzero"/>
	<path id="Vector 548" d="M37.45 11.95L38.72 12.35C40.76 11.91 41.65 12.02 43.35 13.82C42.35 14.28 40.02 14.65 38.72 12.35" stroke="#000000" stroke-opacity="1.000000" stroke-width="0.280950"/>
	<path id="Vector 554" d="M35.89 15.2C37.73 14.21 38.62 14.08 40.74 15.34C39.9 16.07 37.77 17.05 35.89 15.2Z" fill="#000000" fill-opacity="1.000000" fill-rule="nonzero"/>
	<path id="Vector 554" d="M34.55 15.16L35.89 15.2C37.73 14.21 38.62 14.08 40.74 15.34C39.9 16.07 37.77 17.05 35.89 15.2" stroke="#000000" stroke-opacity="1.000000" stroke-width="0.280950"/>
	<path id="Vector 555" d="M32.76 17.09C34.6 16.11 35.49 15.98 37.61 17.24C36.78 17.96 34.64 18.94 32.76 17.09Z" fill="#000000" fill-opacity="1.000000" fill-rule="nonzero"/>
	<path id="Vector 555" d="M31.43 17.06L32.76 17.09C34.6 16.11 35.49 15.98 37.61 17.24C36.78 17.96 34.64 18.94 32.76 17.09" stroke="#000000" stroke-opacity="1.000000" stroke-width="0.280950"/>
	<path id="Vector 556" d="M28.94 18.21C30.89 17.46 31.79 17.44 33.74 18.96C32.82 19.57 30.58 20.28 28.94 18.21Z" fill="#000000" fill-opacity="1.000000" fill-rule="nonzero"/>
	<path id="Vector 556" d="M27.63 18.01L28.94 18.21C30.89 17.46 31.79 17.44 33.74 18.96C32.82 19.57 30.58 20.28 28.94 18.21" stroke="#000000" stroke-opacity="1.000000" stroke-width="0.280950"/>
	<path id="Vector 557" d="M24.74 18.83C26.79 18.42 27.68 18.55 29.34 20.38C28.33 20.83 26 21.14 24.74 18.83Z" fill="#000000" fill-opacity="1.000000" fill-rule="nonzero"/>
	<path id="Vector 557" d="M23.48 18.4L24.74 18.83C26.79 18.42 27.68 18.55 29.34 20.38C28.33 20.83 26 21.14 24.74 18.83" stroke="#000000" stroke-opacity="1.000000" stroke-width="0.280950"/>
	<path id="Vector 558" d="M22.04 19.27C24.01 19.95 24.71 20.51 25.22 22.93C24.12 22.81 21.95 21.9 22.04 19.27Z" fill="#000000" fill-opacity="1.000000" fill-rule="nonzero"/>
	<path id="Vector 558" d="M21.16 18.26L22.04 19.27C24.01 19.95 24.71 20.51 25.22 22.93C24.12 22.81 21.95 21.9 22.04 19.27" stroke="#000000" stroke-opacity="1.000000" stroke-width="0.280950"/>
	<path id="Vector 561" d="M21.16 23.37C23.13 24.06 23.83 24.62 24.34 27.04C23.25 26.91 21.07 26.01 21.16 23.37Z" fill="#000000" fill-opacity="1.000000" fill-rule="nonzero"/>
	<path id="Vector 561" d="M20.29 22.37L21.16 23.37C23.13 24.06 23.83 24.62 24.34 27.04C23.25 26.91 21.07 26.01 21.16 23.37" stroke="#000000" stroke-opacity="1.000000" stroke-width="0.280950"/>
	<path id="Vector 575" d="M19.12 22.55C18.61 24.57 18.11 25.31 15.74 26.03C15.77 24.92 16.49 22.68 19.12 22.55Z" fill="#000000" fill-opacity="1.000000" fill-rule="nonzero"/>
	<path id="Vector 575" d="M20.05 21.59L19.12 22.55C18.61 24.57 18.11 25.31 15.74 26.03C15.77 24.92 16.49 22.68 19.12 22.55" stroke="#000000" stroke-opacity="1.000000" stroke-width="0.280950"/>
	<path id="Vector 576" d="M19.55 25.67C19.03 27.7 18.53 28.44 16.17 29.15C16.2 28.05 16.91 25.81 19.55 25.67Z" fill="#000000" fill-opacity="1.000000" fill-rule="nonzero"/>
	<path id="Vector 576" d="M20.47 24.71L19.55 25.67C19.03 27.7 18.53 28.44 16.17 29.15C16.2 28.05 16.91 25.81 19.55 25.67" stroke="#000000" stroke-opacity="1.000000" stroke-width="0.280950"/>
	<path id="Vector 577" d="M17.44 30.32C16.05 31.87 15.26 32.3 12.83 31.83C13.37 30.87 15.05 29.22 17.44 30.32Z" fill="#000000" fill-opacity="1.000000" fill-rule="nonzero"/>
	<path id="Vector 577" d="M18.71 29.91L17.44 30.32C16.05 31.87 15.26 32.3 12.83 31.83C13.37 30.87 15.05 29.22 17.44 30.32" stroke="#000000" stroke-opacity="1.000000" stroke-width="0.280950"/>
	<path id="Vector 578" d="M14.81 33.73C13.41 35.28 12.62 35.7 10.2 35.24C10.74 34.27 12.42 32.62 14.81 33.73Z" fill="#000000" fill-opacity="1.000000" fill-rule="nonzero"/>
	<path id="Vector 578" d="M16.08 33.31L14.81 33.73C13.41 35.28 12.62 35.7 10.2 35.24C10.74 34.27 12.42 32.62 14.81 33.73" stroke="#000000" stroke-opacity="1.000000" stroke-width="0.280950"/>
	<path id="Vector 579" d="M11.51 36.85C10.11 38.41 9.32 38.83 6.9 38.36C7.44 37.4 9.12 35.75 11.51 36.85Z" fill="#000000" fill-opacity="1.000000" fill-rule="nonzero"/>
	<path id="Vector 579" d="M12.78 36.44L11.51 36.85C10.11 38.41 9.32 38.83 6.9 38.36C7.44 37.4 9.12 35.75 11.51 36.85" stroke="#000000" stroke-opacity="1.000000" stroke-width="0.280950"/>
	<path id="Vector 562" d="M21.16 26.88C23.13 27.57 23.83 28.13 24.34 30.55C23.25 30.42 21.07 29.52 21.16 26.88Z" fill="#000000" fill-opacity="1.000000" fill-rule="nonzero"/>
	<path id="Vector 562" d="M20.29 25.88L21.16 26.88C23.13 27.57 23.83 28.13 24.34 30.55C23.25 30.42 21.07 29.52 21.16 26.88" stroke="#000000" stroke-opacity="1.000000" stroke-width="0.280950"/>
	<path id="Vector 563" d="M20.32 29.62C22.29 30.31 22.99 30.87 23.5 33.29C22.4 33.16 20.23 32.26 20.32 29.62Z" fill="#000000" fill-opacity="1.000000" fill-rule="nonzero"/>
	<path id="Vector 563" d="M19.44 28.62L20.32 29.62C22.29 30.31 22.99 30.87 23.5 33.29C22.4 33.16 20.23 32.26 20.32 29.62" stroke="#000000" stroke-opacity="1.000000" stroke-width="0.280950"/>
	<path id="Vector 564" d="M18.74 32.18C20.56 33.2 21.15 33.88 21.22 36.35C20.16 36.04 18.18 34.76 18.74 32.18Z" fill="#000000" fill-opacity="1.000000" fill-rule="nonzero"/>
	<path id="Vector 564" d="M18.05 31.04L18.74 32.18C20.56 33.2 21.15 33.88 21.22 36.35C20.16 36.04 18.18 34.76 18.74 32.18" stroke="#000000" stroke-opacity="1.000000" stroke-width="0.280950"/>
	<path id="Vector 565" d="M17.16 34.3C18.79 35.59 19.27 36.36 18.96 38.8C17.96 38.33 16.21 36.76 17.16 34.3Z" fill="#000000" fill-opacity="1.000000" fill-rule="nonzero"/>
	<path id="Vector 565" d="M16.66 33.06L17.16 34.3C18.79 35.59 19.27 36.36 18.96 38.8C17.96 38.33 16.21 36.76 17.16 34.3" stroke="#000000" stroke-opacity="1.000000" stroke-width="0.280950"/>
	<path id="Vector 566" d="M15.08 36.54C16.72 37.83 17.19 38.6 16.88 41.04C15.89 40.57 14.13 39 15.08 36.54Z" fill="#000000" fill-opacity="1.000000" fill-rule="nonzero"/>
	<path id="Vector 566" d="M14.58 35.3L15.08 36.54C16.72 37.83 17.19 38.6 16.88 41.04C15.89 40.57 14.13 39 15.08 36.54" stroke="#000000" stroke-opacity="1.000000" stroke-width="0.280950"/>
	<path id="Vector 567" d="M12.94 38.33C14.58 39.62 15.05 40.39 14.74 42.84C13.75 42.36 11.99 40.79 12.94 38.33Z" fill="#000000" fill-opacity="1.000000" fill-rule="nonzero"/>
	<path id="Vector 567" d="M12.44 37.09L12.94 38.33C14.58 39.62 15.05 40.39 14.74 42.84C13.75 42.36 11.99 40.79 12.94 38.33" stroke="#000000" stroke-opacity="1.000000" stroke-width="0.280950"/>
	<path id="Vector 580" d="M10.27 39.62C10 41.68 9.59 42.48 7.32 43.47C7.22 42.37 7.67 40.06 10.27 39.62Z" fill="#000000" fill-opacity="1.000000" fill-rule="nonzero"/>
	<path id="Vector 580" d="M11.07 38.55L10.27 39.62C10 41.68 9.59 42.48 7.32 43.47C7.22 42.37 7.67 40.06 10.27 39.62" stroke="#000000" stroke-opacity="1.000000" stroke-width="0.280950"/>
	<path id="Vector 549" d="M35.88 12.76C34.98 10.88 34.89 9.98 36.25 7.92C36.94 8.79 37.82 10.97 35.88 12.76Z" fill="#000000" fill-opacity="1.000000" fill-rule="nonzero"/>
	<path id="Vector 549" d="M35.78 14.09L35.88 12.76C34.98 10.88 34.89 9.98 36.25 7.92C36.94 8.79 37.82 10.97 35.88 12.76" stroke="#000000" stroke-opacity="1.000000" stroke-width="0.280950"/>
	<path id="Vector 559" d="M39.16 9.85C39.96 7.92 40.57 7.26 43.01 6.9C42.82 7.98 41.78 10.1 39.16 9.85Z" fill="#000000" fill-opacity="1.000000" fill-rule="nonzero"/>
	<path id="Vector 559" d="M38.1 10.66L39.16 9.85C39.96 7.92 40.57 7.26 43.01 6.9C42.82 7.98 41.78 10.1 39.16 9.85" stroke="#000000" stroke-opacity="1.000000" stroke-width="0.280950"/>
	<path id="Vector 560" d="M45.36 8.39C46.8 6.88 47.61 6.48 50.02 7.03C49.45 7.98 47.72 9.57 45.36 8.39Z" fill="#000000" fill-opacity="1.000000" fill-rule="nonzero"/>
	<path id="Vector 560" d="M44.08 8.77L45.36 8.39C46.8 6.88 47.61 6.48 50.02 7.03C49.45 7.98 47.72 9.57 45.36 8.39" stroke="#000000" stroke-opacity="1.000000" stroke-width="0.280950"/>
	<path id="Vector 550" d="M33.14 15.11C32.24 13.23 32.15 12.34 33.51 10.28C34.2 11.14 35.08 13.33 33.14 15.11Z" fill="#000000" fill-opacity="1.000000" fill-rule="nonzero"/>
	<path id="Vector 550" d="M33.04 16.44L33.14 15.11C32.24 13.23 32.15 12.34 33.51 10.28C34.2 11.14 35.08 13.33 33.14 15.11" stroke="#000000" stroke-opacity="1.000000" stroke-width="0.280950"/>
	<path id="Vector 551" d="M30.54 16.27C29.64 14.39 29.55 13.5 30.92 11.44C31.6 12.3 32.48 14.49 30.54 16.27Z" fill="#000000" fill-opacity="1.000000" fill-rule="nonzero"/>
	<path id="Vector 551" d="M30.44 17.6L30.54 16.27C29.64 14.39 29.55 13.5 30.92 11.44C31.6 12.3 32.48 14.49 30.54 16.27" stroke="#000000" stroke-opacity="1.000000" stroke-width="0.280950"/>
	<path id="Vector 552" d="M26.85 16.87C25.95 14.99 25.87 14.09 27.23 12.03C27.91 12.9 28.79 15.08 26.85 16.87Z" fill="#000000" fill-opacity="1.000000" fill-rule="nonzero"/>
	<path id="Vector 552" d="M26.75 18.2L26.85 16.87C25.95 14.99 25.87 14.09 27.23 12.03C27.91 12.9 28.79 15.08 26.85 16.87" stroke="#000000" stroke-opacity="1.000000" stroke-width="0.280950"/>
	<path id="Vector 553" d="M23.11 16.84C22.93 14.76 23.16 13.89 25.15 12.44C25.49 13.49 25.55 15.84 23.11 16.84Z" fill="#000000" fill-opacity="1.000000" fill-rule="nonzero"/>
	<path id="Vector 553" d="M22.55 18.05L23.11 16.84C22.93 14.76 23.16 13.89 25.15 12.44C25.49 13.49 25.55 15.84 23.11 16.84" stroke="#000000" stroke-opacity="1.000000" stroke-width="0.280950"/>
	<path id="Vector 536" d="M67.85 12.92C68.82 11.07 69.48 10.46 71.94 10.31C71.66 11.38 70.44 13.4 67.85 12.92Z" fill="#000000" fill-opacity="1.000000" fill-rule="nonzero"/>
	<path id="Vector 536" d="M65.79 14.09L67.85 12.92C68.82 11.07 69.48 10.46 71.94 10.31C71.66 11.38 70.44 13.4 67.85 12.92" stroke="#000000" stroke-opacity="1.000000" stroke-width="0.280950"/>
	<path id="Vector 537" d="M65.94 11.91C63.85 11.84 63.02 11.51 61.81 9.35C62.9 9.15 65.24 9.37 65.94 11.91Z" fill="#000000" fill-opacity="1.000000" fill-rule="nonzero"/>
	<path id="Vector 537" d="M65.94 11.91C63.85 11.84 63.02 11.51 61.81 9.35C62.9 9.15 65.24 9.37 65.94 11.91L65.94 13.06L64.72 13.81" stroke="#000000" stroke-opacity="1.000000" stroke-width="0.280950"/>
	<path id="Vector 538" d="" fill="#000000" fill-opacity="1.000000" fill-rule="nonzero"/>
	<path id="Vector 538" d="M280.78 11.04C281.15 10.76 281.79 10.36 281.47 11.04C281.06 11.9 279.84 11.54 279.98 11.04C280.12 10.55 281.5 8.32 282.36 10.29C283.22 12.26 280.78 13.17 280.38 13.03C280.05 12.91 278.28 11.88 276.83 12.06C276.52 12.1 276.22 12.19 275.95 12.36C275.3 12.79 274.92 13.3 274.66 13.71C274.33 14.24 274.2 14.6 273.94 14.42M276.83 12.06C276.54 12.29 275.95 12.88 275.95 13.41M274.66 13.71C275.22 14.92 276.63 16.92 277.8 15.28C279.26 13.22 276.48 13.68 276.38 13.96C276.27 14.24 276.67 15.26 277.01 14.75" stroke="#000000" stroke-opacity="1.000000" stroke-width="0.737493"/>
	<path id="Vector 539" d="" fill="#000000" fill-opacity="1.000000" fill-rule="nonzero"/>
	<path id="Vector 539" d="M286.4 17.05C286.7 16.7 287.12 16.06 286.42 16.37C285.55 16.75 285.89 17.99 286.38 17.86C286.88 17.73 289.14 16.4 287.2 15.49C285.25 14.58 284.28 17 284.41 17.41C284.52 17.74 285.5 19.54 285.29 20.98C285.25 21.29 285.15 21.59 284.97 21.85C284.53 22.49 284 22.86 283.58 23.11C283.05 23.42 282.68 23.55 282.86 23.82M285.29 20.98C285.06 21.27 284.45 21.83 283.91 21.82M283.58 23.11C282.39 22.52 280.43 21.06 282.1 19.93C284.19 18.53 283.66 21.29 283.38 21.39C283.1 21.49 282.09 21.06 282.61 20.74" stroke="#000000" stroke-opacity="1.000000" stroke-width="0.737493"/>
	<path id="Vector" d="M287.97 12.19C287.97 12.19 286.05 10.1 285.77 9.8C285.54 9.55 284.99 9.59 284.99 9.83C284.99 9.89 285.02 9.95 285.09 10.03C285.44 10.43 287.53 12.57 287.72 12.75C287.85 12.87 288.17 12.82 288.17 12.58C288.17 12.48 288.12 12.35 287.97 12.19ZM287.02 10.59C287.2 11.32 287.93 11.03 288.16 10.87C288.26 10.8 288.35 10.62 288.35 10.44C288.35 10.22 288.23 9.99 287.9 9.89C287.57 9.82 286.99 9.85 286.99 10.37C286.99 10.43 287 10.51 287.02 10.59ZM277.54 10.2C277.43 10.1 277.14 10.09 277.11 10.34C277.11 10.36 277.11 10.37 277.11 10.39C277.11 10.66 277.4 10.66 277.47 10.59C277.51 10.54 277.58 10.42 277.58 10.32C277.58 10.28 277.57 10.23 277.54 10.2ZM285.67 11.23C285.67 10.84 285.41 10.57 285.21 10.45C285.23 10.53 285.24 10.61 285.24 10.7C285.24 11.03 285.1 11.41 284.96 11.78C284.88 12 284.81 12.21 284.75 12.41C284.73 12.49 284.72 12.57 284.72 12.63C284.72 13.13 285.26 13.27 285.77 13.13C286.35 12.98 286.89 12.64 287.33 12.62C286.88 11.92 286.19 12.19 285.89 12.41C286.15 12.18 286.21 11.82 286.21 11.6C286.21 11.57 286.21 11.54 286.21 11.52C286.01 11.39 285.57 11.77 285.37 11.98C285.59 11.7 285.67 11.45 285.67 11.23ZM284.14 10.73C284.03 10.62 283.74 10.62 283.72 10.87C283.71 10.89 283.71 10.9 283.71 10.92C283.71 11.19 284 11.18 284.07 11.12C284.12 11.07 284.18 10.95 284.18 10.85C284.18 10.8 284.17 10.76 284.14 10.73ZM285.52 13.63C285.24 13.43 284.58 12.91 284.24 12.41C283.91 11.92 283.63 12.21 283.54 12.41C283.54 12.42 283.54 12.43 283.54 12.44C283.54 12.49 283.57 12.59 283.72 12.75C283.88 12.93 284.59 13.71 284.93 14.08C284.99 14.13 285.16 14.2 285.37 14.08C285.52 14 285.57 13.87 285.57 13.77C285.57 13.7 285.55 13.65 285.52 13.63ZM283.47 12.78C282.94 12.44 282.24 12.8 281.96 13.03L282.05 13.29C282.25 13.24 282.56 13.17 282.77 13.11C282.87 13.06 282.96 13.03 283 13.03C283 13.03 283.01 13.03 283.01 13.03C283.01 13.04 282.91 13.07 282.77 13.11C282.59 13.19 282.35 13.33 282.21 13.41L282.49 13.71L283.35 13.29L282.65 13.94L282.77 14.08C283.06 13.87 283.65 13.49 283.65 13.63C283.65 13.77 283.21 14.15 283 14.33L283.35 14.63L284.07 14.08C284.01 14.45 283.65 14.68 283.47 14.75L283.65 15.01L284.24 14.42C284.17 14.68 283.94 15.04 283.84 15.19L284.07 15.45L284.45 14.94C284.45 15.24 284.24 15.53 284.14 15.65L284.45 16.08C284.69 15.9 284.77 15.56 284.77 15.21C284.77 14.83 284.68 14.42 284.59 14.17C284.44 13.85 284 13.12 283.47 12.78ZM284.37 16.08C284.33 15.93 282.02 13.49 281.7 13.29C281.42 13.19 281.19 13.33 281.12 13.41C282.37 13.92 283.65 15.82 284.14 16.7C284.26 16.5 284.37 16.3 284.37 16.14C284.37 16.12 284.37 16.1 284.37 16.08ZM281.01 13.49C280.85 13.49 280.25 13.53 280.08 13.71C280.08 13.71 277.79 15.44 277.79 15.71C277.79 15.72 277.79 15.73 277.8 15.73C277.91 15.83 278.32 16.81 278.32 17.62C278.32 18.18 278.13 18.66 277.54 18.74L278.78 19.96C278.99 19.4 279.82 18.62 281.52 19.96C282.42 19.4 284.1 18.1 284.1 17.16C284.1 17.09 284.09 17.03 284.07 16.96C283.79 16.02 281.91 14.25 281.01 13.49ZM287.14 13.94C287.03 13.84 286.75 13.83 286.72 14.08C286.72 14.1 286.72 14.12 286.72 14.13C286.72 14.4 287 14.4 287.07 14.33C287.12 14.28 287.18 14.16 287.18 14.06C287.18 14.02 287.17 13.97 287.14 13.94ZM276.83 17.31C276.73 17.21 276.44 17.2 276.41 17.45C276.41 17.47 276.41 17.49 276.41 17.5C276.41 17.77 276.7 17.77 276.76 17.7C276.81 17.65 276.88 17.53 276.88 17.43C276.88 17.39 276.87 17.35 276.83 17.31ZM278.55 19.96L277.36 18.82C277.13 18.73 276.58 18.64 276.27 19.02C276.44 18.95 276.85 18.89 277.11 19.17C277.38 19.46 277.92 20.02 278.15 20.26C278.21 20.38 278.27 20.57 278.27 20.74C278.27 20.9 278.22 21.04 278.06 21.09C278.31 21.02 278.69 20.81 278.69 20.41C278.69 20.28 278.65 20.13 278.55 19.96ZM287.21 20.26C287.1 20.16 286.82 20.15 286.79 20.4C286.79 20.42 286.79 20.44 286.79 20.45C286.79 20.72 287.07 20.72 287.14 20.65C287.19 20.6 287.25 20.48 287.25 20.38C287.25 20.34 287.24 20.3 287.21 20.26ZM280.08 20.95C279.98 20.84 279.69 20.84 279.66 21.09C279.66 21.11 279.66 21.12 279.66 21.14C279.66 21.4 279.94 21.4 280.01 21.33C280.06 21.29 280.13 21.17 280.13 21.07C280.13 21.02 280.11 20.98 280.08 20.95Z" fill="#000000" fill-opacity="1.000000" fill-rule="evenodd"/>
	<path id="Vector" d="M285.77 9.8C285.49 9.5 284.73 9.62 285.09 10.03C285.44 10.43 287.53 12.57 287.72 12.75C287.91 12.92 288.47 12.74 287.97 12.19C287.97 12.19 286.05 10.1 285.77 9.8ZM287.9 9.89C288.51 10.07 288.39 10.71 288.16 10.87C287.93 11.03 287.2 11.32 287.02 10.59C286.83 9.86 287.53 9.82 287.9 9.89ZM285.37 11.98C285.57 11.77 286.01 11.39 286.21 11.52C286.23 11.71 286.19 12.15 285.89 12.41C286.19 12.19 286.88 11.92 287.33 12.62C286.89 12.64 286.35 12.98 285.77 13.13C285.19 13.29 284.58 13.08 284.75 12.41C284.93 11.75 285.36 11 285.21 10.45C285.52 10.64 285.98 11.2 285.37 11.98ZM283.72 10.87C283.68 11.19 284 11.19 284.07 11.12C284.14 11.04 284.24 10.83 284.14 10.73C284.03 10.62 283.74 10.62 283.72 10.87ZM286.72 14.08C286.68 14.4 287 14.4 287.07 14.33C287.14 14.26 287.25 14.05 287.14 13.94C287.03 13.84 286.75 13.83 286.72 14.08ZM277.11 10.34C277.08 10.66 277.4 10.66 277.47 10.59C277.54 10.52 277.64 10.31 277.54 10.2C277.43 10.1 277.14 10.09 277.11 10.34ZM286.79 20.4C286.75 20.72 287.07 20.72 287.14 20.65C287.21 20.58 287.32 20.37 287.21 20.26C287.1 20.16 286.82 20.15 286.79 20.4ZM276.41 17.45C276.38 17.77 276.69 17.77 276.76 17.7C276.83 17.63 276.94 17.42 276.83 17.31C276.73 17.21 276.44 17.2 276.41 17.45ZM279.66 21.09C279.63 21.4 279.94 21.4 280.01 21.33C280.08 21.26 280.19 21.05 280.08 20.95C279.98 20.84 279.69 20.84 279.66 21.09ZM284.24 12.41C283.91 11.92 283.63 12.21 283.54 12.41C283.53 12.45 283.55 12.57 283.72 12.75C283.88 12.93 284.59 13.71 284.93 14.08C284.99 14.13 285.16 14.2 285.37 14.08C285.63 13.94 285.59 13.68 285.52 13.63C285.24 13.43 284.58 12.91 284.24 12.41ZM282.77 13.11C282.56 13.17 282.25 13.24 282.05 13.29L281.96 13.03C282.24 12.8 282.94 12.44 283.47 12.78C284 13.12 284.44 13.85 284.59 14.17C284.75 14.65 284.95 15.71 284.45 16.08L284.14 15.65C284.24 15.53 284.45 15.24 284.45 14.94L284.07 15.45L283.84 15.19C283.94 15.04 284.17 14.68 284.24 14.42L283.65 15.01L283.47 14.75C283.65 14.68 284.01 14.45 284.07 14.08L283.35 14.63L283 14.33C283.21 14.15 283.65 13.77 283.65 13.63C283.65 13.49 283.06 13.87 282.77 14.08L282.65 13.94L283.35 13.29L282.49 13.71L282.21 13.41C282.35 13.33 282.59 13.19 282.77 13.11C282.87 13.06 282.96 13.03 283 13.03C283.04 13.03 282.94 13.06 282.77 13.11M284.37 16.08C284.4 16.24 284.28 16.47 284.14 16.7C283.65 15.82 282.37 13.92 281.12 13.41C281.19 13.33 281.42 13.19 281.7 13.29C282.02 13.49 284.33 15.93 284.37 16.08ZM280.08 13.71C280.08 13.71 277.6 15.58 277.8 15.73C277.99 15.89 279 18.55 277.54 18.74L278.78 19.96C278.99 19.4 279.82 18.62 281.52 19.96C282.49 19.36 284.35 17.9 284.07 16.96C283.79 16.02 281.91 14.25 281.01 13.49C280.85 13.49 280.25 13.53 280.08 13.71ZM277.36 18.82C277.13 18.73 276.58 18.64 276.27 19.02C276.44 18.95 276.85 18.89 277.11 19.17C277.38 19.46 277.92 20.02 278.15 20.26C278.26 20.49 278.39 20.98 278.06 21.09C278.39 21 278.95 20.65 278.55 19.96L277.36 18.82Z" stroke="#000000" stroke-opacity="1.000000" stroke-width="0.035119"/>
	<path id="Vector 531" d="" fill="#000000" fill-opacity="1.000000" fill-rule="nonzero"/>
	<path id="Vector 531" d="M276.99 19.51C272.16 19.85 262.07 18.93 259.41 13.2C256.76 7.47 243.84 10.81 237.71 13.2C234.19 15.32 225.74 18.13 220.06 12.39" stroke="#000000" stroke-opacity="1.000000" stroke-width="0.737493"/>
	<path id="Vector 532" d="M277.62 20.42C276 22.88 274.73 28.89 280.94 35.1C287.7 41.85 284.54 38.7 286.65 41.1" stroke="#000000" stroke-opacity="1.000000" stroke-width="0.737493"/>
	<path id="Vector 533" d="M219.52 11.94C218.93 11.29 217.17 10.16 214.8 10.83C215.42 11.75 217.23 13.25 219.52 11.94Z" fill="#000000" fill-opacity="1.000000" fill-rule="nonzero"/>
	<path id="Vector 533" d="M220.31 12.62L219.52 11.94C218.93 11.29 217.17 10.16 214.8 10.83C215.42 11.75 217.23 13.25 219.52 11.94" stroke="#000000" stroke-opacity="1.000000" stroke-width="0.737493"/>
	<path id="Vector 534" d="M221.52 14.61C219.45 14.33 218.58 14.52 217.03 16.44C218.06 16.83 220.41 17 221.52 14.61Z" fill="#000000" fill-opacity="1.000000" fill-rule="nonzero"/>
	<path id="Vector 534" d="M222.19 14.33L221.52 14.61C219.45 14.33 218.58 14.52 217.03 16.44C218.06 16.83 220.41 17 221.52 14.61" stroke="#000000" stroke-opacity="1.000000" stroke-width="0.280950"/>
	<path id="Vector 535" d="M228.48 16.89C226.41 16.61 225.53 16.79 223.98 18.72C225.02 19.1 227.36 19.28 228.48 16.89Z" fill="#000000" fill-opacity="1.000000" fill-rule="nonzero"/>
	<path id="Vector 535" d="M228.75 16.12L228.48 16.89C227.36 19.28 225.02 19.1 223.98 18.72C225.53 16.79 226.41 16.61 228.48 16.89" stroke="#000000" stroke-opacity="1.000000" stroke-width="0.280950"/>
	<path id="Vector 540" d="M234.32 15.7C232.38 16.45 231.7 17.04 231.27 19.47C232.37 19.31 234.51 18.33 234.32 15.7Z" fill="#000000" fill-opacity="1.000000" fill-rule="nonzero"/>
	<path id="Vector 540" d="M235.16 14.66L234.32 15.7C232.38 16.45 231.7 17.04 231.27 19.47C232.37 19.31 234.51 18.33 234.32 15.7" stroke="#000000" stroke-opacity="1.000000" stroke-width="0.280950"/>
	<path id="Vector 541" d="M236.98 14.52C235.45 15.94 235.04 16.74 235.55 19.16C236.5 18.6 238.13 16.9 236.98 14.52Z" fill="#000000" fill-opacity="1.000000" fill-rule="nonzero"/>
	<path id="Vector 541" d="M237.38 13.25L236.98 14.52C235.45 15.94 235.04 16.74 235.55 19.16C236.5 18.6 238.13 16.9 236.98 14.52" stroke="#000000" stroke-opacity="1.000000" stroke-width="0.280950"/>
	<path id="Vector 542" d="M240.45 11.47C238.82 10.16 237.97 9.87 235.66 10.72C236.34 11.59 238.27 12.94 240.45 11.47Z" fill="#000000" fill-opacity="1.000000" fill-rule="nonzero"/>
	<path id="Vector 542" d="M241.77 11.68L240.45 11.47C238.82 10.16 237.97 9.87 235.66 10.72C236.34 11.59 238.27 12.94 240.45 11.47" stroke="#000000" stroke-opacity="1.000000" stroke-width="0.280950"/>
	<path id="Vector 543" d="M242.28 12.3C240.4 13.21 239.78 13.85 239.55 16.31C240.63 16.06 242.68 14.9 242.28 12.3Z" fill="#000000" fill-opacity="1.000000" fill-rule="nonzero"/>
	<path id="Vector 543" d="M243.03 11.2L242.28 12.3C240.4 13.21 239.78 13.85 239.55 16.31C240.63 16.06 242.68 14.9 242.28 12.3" stroke="#000000" stroke-opacity="1.000000" stroke-width="0.280950"/>
	<path id="Vector 544" d="M244.59 10.31C243.14 8.81 242.34 8.41 239.93 8.97C240.51 9.91 242.24 11.5 244.59 10.31Z" fill="#000000" fill-opacity="1.000000" fill-rule="nonzero"/>
	<path id="Vector 544" d="M245.88 10.68L244.59 10.31C243.14 8.81 242.34 8.41 239.93 8.97C240.51 9.91 242.24 11.5 244.59 10.31" stroke="#000000" stroke-opacity="1.000000" stroke-width="0.280950"/>
	<path id="Vector 545" d="M247.64 11.23C245.61 11.7 244.85 12.19 244.08 14.53C245.19 14.53 247.44 13.86 247.64 11.23Z" fill="#000000" fill-opacity="1.000000" fill-rule="nonzero"/>
	<path id="Vector 545" d="M248.62 10.33L247.64 11.23C245.61 11.7 244.85 12.19 244.08 14.53C245.19 14.53 247.44 13.86 247.64 11.23" stroke="#000000" stroke-opacity="1.000000" stroke-width="0.280950"/>
	<path id="Vector 546" d="M251.45 11.04C249.42 11.51 248.66 12 247.9 14.35C249 14.34 251.26 13.67 251.45 11.04Z" fill="#000000" fill-opacity="1.000000" fill-rule="nonzero"/>
	<path id="Vector 546" d="M252.43 10.14L251.45 11.04C249.42 11.51 248.66 12 247.9 14.35C249 14.34 251.26 13.67 251.45 11.04" stroke="#000000" stroke-opacity="1.000000" stroke-width="0.280950"/>
	<path id="Vector 547" d="M255.34 11.34C253.26 11.48 252.44 11.84 251.31 14.04C252.4 14.21 254.73 13.91 255.34 11.34Z" fill="#000000" fill-opacity="1.000000" fill-rule="nonzero"/>
	<path id="Vector 547" d="M256.45 10.6L255.34 11.34C253.26 11.48 252.44 11.84 251.31 14.04C252.4 14.21 254.73 13.91 255.34 11.34" stroke="#000000" stroke-opacity="1.000000" stroke-width="0.280950"/>
	<path id="Vector 548" d="M257.97 13.55C255.93 13.11 255.04 13.22 253.34 15.02C254.34 15.48 256.67 15.85 257.97 13.55Z" fill="#000000" fill-opacity="1.000000" fill-rule="nonzero"/>
	<path id="Vector 548" d="M259.24 13.15L257.97 13.55C255.93 13.11 255.04 13.22 253.34 15.02C254.34 15.48 256.67 15.85 257.97 13.55" stroke="#000000" stroke-opacity="1.000000" stroke-width="0.280950"/>
	<path id="Vector 554" d="M260.8 16.4C258.96 15.41 258.07 15.28 255.95 16.54C256.79 17.26 258.92 18.25 260.8 16.4Z" fill="#000000" fill-opacity="1.000000" fill-rule="nonzero"/>
	<path id="Vector 554" d="M262.14 16.36L260.8 16.4C258.96 15.41 258.07 15.28 255.95 16.54C256.79 17.26 258.92 18.25 260.8 16.4" stroke="#000000" stroke-opacity="1.000000" stroke-width="0.280950"/>
	<path id="Vector 555" d="M263.93 18.3C262.09 17.31 261.2 17.18 259.08 18.44C259.91 19.16 262.05 20.15 263.93 18.3Z" fill="#000000" fill-opacity="1.000000" fill-rule="nonzero"/>
	<path id="Vector 555" d="M265.26 18.26L263.93 18.3C262.09 17.31 261.2 17.18 259.08 18.44C259.91 19.16 262.05 20.15 263.93 18.3" stroke="#000000" stroke-opacity="1.000000" stroke-width="0.280950"/>
	<path id="Vector 556" d="M267.75 19.41C265.8 18.66 264.9 18.64 262.95 20.16C263.87 20.77 266.11 21.48 267.75 19.41Z" fill="#000000" fill-opacity="1.000000" fill-rule="nonzero"/>
	<path id="Vector 556" d="M269.06 19.21L267.75 19.41C265.8 18.66 264.9 18.64 262.95 20.16C263.87 20.77 266.11 21.48 267.75 19.41" stroke="#000000" stroke-opacity="1.000000" stroke-width="0.280950"/>
	<path id="Vector 557" d="M271.95 20.03C269.9 19.62 269.01 19.75 267.35 21.58C268.36 22.03 270.69 22.34 271.95 20.03Z" fill="#000000" fill-opacity="1.000000" fill-rule="nonzero"/>
	<path id="Vector 557" d="M273.21 19.6L271.95 20.03C269.9 19.62 269.01 19.75 267.35 21.58C268.36 22.03 270.69 22.34 271.95 20.03" stroke="#000000" stroke-opacity="1.000000" stroke-width="0.280950"/>
	<path id="Vector 558" d="M274.65 20.47C272.68 21.15 271.98 21.71 271.47 24.13C272.57 24.01 274.74 23.1 274.65 20.47Z" fill="#000000" fill-opacity="1.000000" fill-rule="nonzero"/>
	<path id="Vector 558" d="M275.53 19.46L274.65 20.47C272.68 21.15 271.98 21.71 271.47 24.13C272.57 24.01 274.74 23.1 274.65 20.47" stroke="#000000" stroke-opacity="1.000000" stroke-width="0.280950"/>
	<path id="Vector 561" d="M275.53 24.58C273.56 25.26 272.86 25.82 272.35 28.24C273.44 28.12 275.62 27.21 275.53 24.58Z" fill="#000000" fill-opacity="1.000000" fill-rule="nonzero"/>
	<path id="Vector 561" d="M276.41 23.57L275.53 24.58C273.56 25.26 272.86 25.82 272.35 28.24C273.44 28.12 275.62 27.21 275.53 24.58" stroke="#000000" stroke-opacity="1.000000" stroke-width="0.280950"/>
	<path id="Vector 575" d="M277.57 23.75C278.08 25.77 278.58 26.51 280.95 27.23C280.92 26.12 280.2 23.88 277.57 23.75Z" fill="#000000" fill-opacity="1.000000" fill-rule="nonzero"/>
	<path id="Vector 575" d="M276.64 22.79L277.57 23.75C278.08 25.77 278.58 26.51 280.95 27.23C280.92 26.12 280.2 23.88 277.57 23.75" stroke="#000000" stroke-opacity="1.000000" stroke-width="0.280950"/>
	<path id="Vector 576" d="M277.14 26.87C277.66 28.9 278.16 29.64 280.52 30.35C280.5 29.25 279.78 27.01 277.14 26.87Z" fill="#000000" fill-opacity="1.000000" fill-rule="nonzero"/>
	<path id="Vector 576" d="M276.22 25.91L277.14 26.87C277.66 28.9 278.16 29.64 280.52 30.35C280.5 29.25 279.78 27.01 277.14 26.87" stroke="#000000" stroke-opacity="1.000000" stroke-width="0.280950"/>
	<path id="Vector 577" d="M279.25 31.53C280.64 33.08 281.44 33.5 283.86 33.03C283.32 32.07 281.64 30.42 279.25 31.53Z" fill="#000000" fill-opacity="1.000000" fill-rule="nonzero"/>
	<path id="Vector 577" d="M277.98 31.11L279.25 31.53C280.64 33.08 281.44 33.5 283.86 33.03C283.32 32.07 281.64 30.42 279.25 31.53" stroke="#000000" stroke-opacity="1.000000" stroke-width="0.280950"/>
	<path id="Vector 578" d="M281.88 34.93C283.28 36.48 284.07 36.91 286.49 36.44C285.95 35.47 284.27 33.83 281.88 34.93Z" fill="#000000" fill-opacity="1.000000" fill-rule="nonzero"/>
	<path id="Vector 578" d="M280.61 34.51L281.88 34.93C283.28 36.48 284.07 36.91 286.49 36.44C285.95 35.47 284.27 33.83 281.88 34.93" stroke="#000000" stroke-opacity="1.000000" stroke-width="0.280950"/>
	<path id="Vector 579" d="M285.18 38.06C286.58 39.61 287.37 40.03 289.79 39.56C289.25 38.6 287.57 36.95 285.18 38.06Z" fill="#000000" fill-opacity="1.000000" fill-rule="nonzero"/>
	<path id="Vector 579" d="M283.91 37.64L285.18 38.06C286.58 39.61 287.37 40.03 289.79 39.56C289.25 38.6 287.57 36.95 285.18 38.06" stroke="#000000" stroke-opacity="1.000000" stroke-width="0.280950"/>
	<path id="Vector 562" d="M275.53 28.09C273.56 28.77 272.86 29.33 272.35 31.75C273.44 31.63 275.62 30.72 275.53 28.09Z" fill="#000000" fill-opacity="1.000000" fill-rule="nonzero"/>
	<path id="Vector 562" d="M276.41 27.08L275.53 28.09C273.56 28.77 272.86 29.33 272.35 31.75C273.44 31.63 275.62 30.72 275.53 28.09" stroke="#000000" stroke-opacity="1.000000" stroke-width="0.280950"/>
	<path id="Vector 563" d="M276.37 30.83C274.4 31.51 273.7 32.07 273.19 34.49C274.29 34.37 276.46 33.46 276.37 30.83Z" fill="#000000" fill-opacity="1.000000" fill-rule="nonzero"/>
	<path id="Vector 563" d="M277.25 29.82L276.37 30.83C274.4 31.51 273.7 32.07 273.19 34.49C274.29 34.37 276.46 33.46 276.37 30.83" stroke="#000000" stroke-opacity="1.000000" stroke-width="0.280950"/>
	<path id="Vector 564" d="M277.95 33.39C276.13 34.41 275.54 35.09 275.47 37.55C276.53 37.24 278.51 35.96 277.95 33.39Z" fill="#000000" fill-opacity="1.000000" fill-rule="nonzero"/>
	<path id="Vector 564" d="M278.64 32.24L277.95 33.39C276.13 34.41 275.54 35.09 275.47 37.55C276.53 37.24 278.51 35.96 277.95 33.39" stroke="#000000" stroke-opacity="1.000000" stroke-width="0.280950"/>
	<path id="Vector 565" d="M279.53 35.5C277.9 36.79 277.42 37.56 277.73 40.01C278.73 39.53 280.48 37.96 279.53 35.5Z" fill="#000000" fill-opacity="1.000000" fill-rule="nonzero"/>
	<path id="Vector 565" d="M280.03 34.26L279.53 35.5C277.9 36.79 277.42 37.56 277.73 40.01C278.73 39.53 280.48 37.96 279.53 35.5" stroke="#000000" stroke-opacity="1.000000" stroke-width="0.280950"/>
	<path id="Vector 566" d="M281.61 37.74C279.97 39.03 279.5 39.8 279.81 42.25C280.8 41.77 282.56 40.2 281.61 37.74Z" fill="#000000" fill-opacity="1.000000" fill-rule="nonzero"/>
	<path id="Vector 566" d="M282.11 36.5L281.61 37.74C279.97 39.03 279.5 39.8 279.81 42.25C280.8 41.77 282.56 40.2 281.61 37.74" stroke="#000000" stroke-opacity="1.000000" stroke-width="0.280950"/>
	<path id="Vector 567" d="M283.75 39.53C282.11 40.82 281.64 41.59 281.95 44.04C282.95 43.56 284.7 41.99 283.75 39.53Z" fill="#000000" fill-opacity="1.000000" fill-rule="nonzero"/>
	<path id="Vector 567" d="M284.25 38.29L283.75 39.53C282.11 40.82 281.64 41.59 281.95 44.04C282.95 43.56 284.7 41.99 283.75 39.53" stroke="#000000" stroke-opacity="1.000000" stroke-width="0.280950"/>
	<path id="Vector 580" d="M286.42 40.82C286.69 42.89 287.1 43.68 289.37 44.67C289.47 43.57 289.02 41.26 286.42 40.82Z" fill="#000000" fill-opacity="1.000000" fill-rule="nonzero"/>
	<path id="Vector 580" d="M285.62 39.75L286.42 40.82C286.69 42.89 287.1 43.68 289.37 44.67C289.47 43.57 289.02 41.26 286.42 40.82" stroke="#000000" stroke-opacity="1.000000" stroke-width="0.280950"/>
	<path id="Vector 549" d="M260.81 13.96C261.71 12.08 261.8 11.18 260.44 9.13C259.75 9.99 258.87 12.18 260.81 13.96Z" fill="#000000" fill-opacity="1.000000" fill-rule="nonzero"/>
	<path id="Vector 549" d="M260.91 15.29L260.81 13.96C261.71 12.08 261.8 11.18 260.44 9.13C259.75 9.99 258.87 12.18 260.81 13.96" stroke="#000000" stroke-opacity="1.000000" stroke-width="0.280950"/>
	<path id="Vector 559" d="M257.53 11.05C256.73 9.12 256.12 8.46 253.68 8.1C253.87 9.18 254.91 11.3 257.53 11.05Z" fill="#000000" fill-opacity="1.000000" fill-rule="nonzero"/>
	<path id="Vector 559" d="M258.59 11.86L257.53 11.05C256.73 9.12 256.12 8.46 253.68 8.1C253.87 9.18 254.91 11.3 257.53 11.05" stroke="#000000" stroke-opacity="1.000000" stroke-width="0.280950"/>
	<path id="Vector 560" d="M251.33 9.59C249.89 8.08 249.08 7.69 246.67 8.23C247.25 9.18 248.98 10.77 251.33 9.59Z" fill="#000000" fill-opacity="1.000000" fill-rule="nonzero"/>
	<path id="Vector 560" d="M252.61 9.97L251.33 9.59C249.89 8.08 249.08 7.69 246.67 8.23C247.25 9.18 248.98 10.77 251.33 9.59" stroke="#000000" stroke-opacity="1.000000" stroke-width="0.280950"/>
	<path id="Vector 550" d="M263.55 16.32C264.45 14.43 264.54 13.54 263.18 11.48C262.49 12.35 261.61 14.53 263.55 16.32Z" fill="#000000" fill-opacity="1.000000" fill-rule="nonzero"/>
	<path id="Vector 550" d="M263.65 17.65L263.55 16.32C264.45 14.43 264.54 13.54 263.18 11.48C262.49 12.35 261.61 14.53 263.55 16.32" stroke="#000000" stroke-opacity="1.000000" stroke-width="0.280950"/>
	<path id="Vector 551" d="M266.15 17.48C267.05 15.59 267.14 14.7 265.78 12.64C265.09 13.51 264.21 15.69 266.15 17.48Z" fill="#000000" fill-opacity="1.000000" fill-rule="nonzero"/>
	<path id="Vector 551" d="M266.25 18.81L266.15 17.48C267.05 15.59 267.14 14.7 265.78 12.64C265.09 13.51 264.21 15.69 266.15 17.48" stroke="#000000" stroke-opacity="1.000000" stroke-width="0.280950"/>
	<path id="Vector 552" d="M269.84 18.07C270.74 16.19 270.82 15.29 269.46 13.24C268.78 14.1 267.9 16.29 269.84 18.07Z" fill="#000000" fill-opacity="1.000000" fill-rule="nonzero"/>
	<path id="Vector 552" d="M269.94 19.4L269.84 18.07C270.74 16.19 270.82 15.29 269.46 13.24C268.78 14.1 267.9 16.29 269.84 18.07" stroke="#000000" stroke-opacity="1.000000" stroke-width="0.280950"/>
	<path id="Vector 553" d="M273.58 18.04C273.76 15.96 273.53 15.09 271.54 13.64C271.2 14.69 271.14 17.04 273.58 18.04Z" fill="#000000" fill-opacity="1.000000" fill-rule="nonzero"/>
	<path id="Vector 553" d="M274.14 19.25L273.58 18.04C273.76 15.96 273.53 15.09 271.54 13.64C271.2 14.69 271.14 17.04 273.58 18.04" stroke="#000000" stroke-opacity="1.000000" stroke-width="0.280950"/>
	<path id="Vector 536" d="M228.84 14.12C227.87 12.27 227.21 11.66 224.75 11.51C225.03 12.58 226.25 14.6 228.84 14.12Z" fill="#000000" fill-opacity="1.000000" fill-rule="nonzero"/>
	<path id="Vector 536" d="M230.9 15.29L228.84 14.12C227.87 12.27 227.21 11.66 224.75 11.51C225.03 12.58 226.25 14.6 228.84 14.12" stroke="#000000" stroke-opacity="1.000000" stroke-width="0.280950"/>
	<path id="Vector 537" d="M230.75 13.11C232.84 13.04 233.68 12.71 234.88 10.56C233.79 10.35 231.45 10.57 230.75 13.11Z" fill="#000000" fill-opacity="1.000000" fill-rule="nonzero"/>
	<path id="Vector 537" d="M230.75 13.11C232.84 13.04 233.68 12.71 234.88 10.56C233.79 10.35 231.45 10.57 230.75 13.11L230.75 14.26L231.97 15.01" stroke="#000000" stroke-opacity="1.000000" stroke-width="0.280950"/>
	<path id="Vector 538" d="" fill="#000000" fill-opacity="1.000000" fill-rule="nonzero"/>
	<path id="Vector 538" d="M282.88 72.58C283.25 72.86 283.89 73.27 283.57 72.58C283.16 71.72 281.94 72.09 282.07 72.58C282.22 73.07 283.6 75.3 284.46 73.33C285.32 71.37 282.88 70.45 282.48 70.59C282.15 70.71 280.38 71.74 278.93 71.56C278.62 71.53 278.32 71.43 278.05 71.26C277.4 70.84 277.02 70.32 276.76 69.91C276.43 69.38 276.3 69.02 276.04 69.21M278.93 71.56C278.64 71.33 278.05 70.74 278.05 70.21M276.76 69.91C277.32 68.7 278.73 66.7 279.9 68.35C281.35 70.4 278.58 69.94 278.48 69.66C278.37 69.38 278.77 68.36 279.11 68.87" stroke="#000000" stroke-opacity="1.000000" stroke-width="0.737493"/>
	<path id="Vector 539" d="" fill="#000000" fill-opacity="1.000000" fill-rule="nonzero"/>
	<path id="Vector 539" d="M288.5 66.57C288.8 66.92 289.22 67.56 288.52 67.25C287.65 66.87 287.99 65.63 288.48 65.76C288.98 65.89 291.24 67.22 289.3 68.13C287.35 69.04 286.38 66.62 286.51 66.21C286.62 65.88 287.6 64.09 287.39 62.64C287.35 62.33 287.25 62.03 287.07 61.77C286.63 61.13 286.1 60.76 285.68 60.51C285.15 60.2 284.78 60.08 284.96 59.81M287.39 62.64C287.16 62.36 286.55 61.79 286.01 61.8M285.68 60.51C284.49 61.1 282.53 62.56 284.2 63.69C286.29 65.09 285.76 62.33 285.48 62.23C285.2 62.14 284.19 62.57 284.71 62.89" stroke="#000000" stroke-opacity="1.000000" stroke-width="0.737493"/>
	<path id="Vector" d="M290.07 71.44C290.07 71.44 288.15 73.53 287.87 73.82C287.64 74.07 287.09 74.03 287.09 73.79C287.09 73.73 287.12 73.67 287.19 73.6C287.54 73.19 289.63 71.05 289.82 70.87C289.96 70.75 290.27 70.81 290.27 71.04C290.27 71.14 290.22 71.27 290.07 71.44ZM289.12 73.03C289.3 72.3 290.03 72.59 290.26 72.75C290.36 72.83 290.45 73 290.45 73.18C290.45 73.4 290.33 73.64 290 73.74C289.67 73.8 289.09 73.77 289.09 73.26C289.09 73.19 289.1 73.12 289.12 73.03ZM279.64 73.42C279.53 73.53 279.24 73.53 279.21 73.28C279.21 73.26 279.21 73.25 279.21 73.23C279.21 72.96 279.5 72.97 279.57 73.03C279.61 73.08 279.68 73.2 279.68 73.3C279.68 73.35 279.67 73.39 279.64 73.42ZM287.77 72.39C287.77 72.78 287.51 73.05 287.31 73.17C287.33 73.09 287.34 73.01 287.34 72.92C287.34 72.59 287.2 72.21 287.06 71.84C286.99 71.63 286.91 71.41 286.85 71.21C286.83 71.13 286.82 71.06 286.82 70.99C286.82 70.5 287.36 70.35 287.87 70.49C288.45 70.65 288.99 70.99 289.43 71C288.98 71.7 288.29 71.43 287.99 71.21C288.25 71.44 288.31 71.81 288.31 72.02C288.31 72.05 288.31 72.08 288.31 72.1C288.11 72.23 287.67 71.85 287.47 71.65C287.69 71.92 287.77 72.17 287.77 72.39ZM286.24 72.89C286.13 73 285.84 73.01 285.82 72.75C285.81 72.74 285.81 72.72 285.81 72.71C285.81 72.44 286.1 72.44 286.17 72.51C286.22 72.56 286.28 72.67 286.28 72.77C286.28 72.82 286.27 72.86 286.24 72.89ZM287.62 70C287.34 70.2 286.68 70.72 286.34 71.21C286.01 71.7 285.73 71.41 285.64 71.21C285.64 71.2 285.64 71.2 285.64 71.19C285.64 71.14 285.67 71.03 285.82 70.87C285.98 70.69 286.69 69.91 287.03 69.54C287.09 69.49 287.26 69.43 287.47 69.54C287.62 69.62 287.68 69.75 287.68 69.85C287.68 69.92 287.65 69.98 287.62 70ZM285.57 70.84C285.04 71.18 284.34 70.82 284.06 70.59L284.15 70.33C284.35 70.38 284.66 70.46 284.87 70.51C284.97 70.56 285.06 70.59 285.1 70.59C285.1 70.59 285.11 70.59 285.11 70.59C285.11 70.58 285.01 70.55 284.87 70.51C284.69 70.43 284.45 70.29 284.31 70.21L284.59 69.91L285.45 70.33L284.75 69.68L284.87 69.54C285.16 69.75 285.75 70.14 285.75 70C285.75 69.86 285.31 69.47 285.1 69.29L285.45 69L286.17 69.54C286.11 69.17 285.75 68.94 285.57 68.87L285.75 68.61L286.34 69.21C286.27 68.94 286.04 68.58 285.94 68.43L286.17 68.17L286.55 68.68C286.55 68.38 286.34 68.09 286.24 67.98L286.55 67.54C286.79 67.72 286.87 68.06 286.87 68.41C286.87 68.8 286.78 69.2 286.69 69.45C286.54 69.77 286.1 70.5 285.57 70.84ZM286.47 67.54C286.43 67.7 284.12 70.13 283.8 70.33C283.52 70.43 283.29 70.29 283.22 70.21C284.47 69.7 285.75 67.81 286.24 66.92C286.36 67.12 286.47 67.33 286.47 67.48C286.47 67.5 286.47 67.52 286.47 67.54ZM283.11 70.14C282.95 70.14 282.35 70.09 282.18 69.91C282.18 69.91 279.89 68.18 279.89 67.91C279.89 67.9 279.89 67.89 279.9 67.89C280.01 67.79 280.42 66.82 280.42 66C280.42 65.44 280.23 64.96 279.64 64.89L280.88 63.66C281.09 64.22 281.92 65.01 283.62 63.66C284.52 64.22 286.2 65.52 286.2 66.46C286.2 66.53 286.19 66.59 286.17 66.66C285.89 67.6 284.01 69.37 283.11 70.14ZM289.24 69.68C289.13 69.79 288.85 69.79 288.82 69.54C288.82 69.52 288.82 69.51 288.82 69.49C288.82 69.22 289.1 69.23 289.17 69.29C289.22 69.34 289.28 69.46 289.28 69.56C289.28 69.61 289.27 69.65 289.24 69.68ZM278.93 66.31C278.83 66.41 278.54 66.42 278.51 66.17C278.51 66.15 278.51 66.14 278.51 66.12C278.51 65.85 278.8 65.86 278.86 65.92C278.91 65.97 278.98 66.09 278.98 66.19C278.98 66.23 278.97 66.28 278.93 66.31ZM280.65 63.66L279.46 64.8C279.23 64.89 278.68 64.98 278.37 64.61C278.54 64.67 278.95 64.73 279.21 64.45C279.48 64.17 280.02 63.6 280.25 63.36C280.31 63.24 280.37 63.05 280.37 62.88C280.37 62.72 280.32 62.59 280.16 62.53C280.41 62.6 280.79 62.81 280.79 63.21C280.79 63.34 280.75 63.49 280.65 63.66ZM289.31 63.36C289.21 63.46 288.92 63.47 288.89 63.22C288.89 63.2 288.89 63.19 288.89 63.17C288.89 62.9 289.17 62.91 289.24 62.97C289.29 63.02 289.35 63.14 289.35 63.24C289.35 63.29 289.34 63.33 289.31 63.36ZM282.18 62.67C282.08 62.78 281.79 62.79 281.76 62.53C281.76 62.52 281.76 62.5 281.76 62.49C281.76 62.22 282.04 62.22 282.11 62.29C282.16 62.34 282.23 62.45 282.23 62.56C282.23 62.6 282.21 62.64 282.18 62.67Z" fill="#000000" fill-opacity="1.000000" fill-rule="evenodd"/>
	<path id="Vector" d="M287.87 73.82C287.59 74.12 286.83 74 287.19 73.6C287.54 73.19 289.63 71.05 289.82 70.87C290.01 70.7 290.57 70.89 290.07 71.44C290.07 71.44 288.15 73.53 287.87 73.82ZM290 73.74C290.61 73.55 290.49 72.91 290.26 72.75C290.03 72.59 289.3 72.3 289.12 73.03C288.93 73.76 289.63 73.81 290 73.74ZM287.47 71.65C287.67 71.85 288.11 72.23 288.31 72.1C288.33 71.92 288.29 71.47 287.99 71.21C288.29 71.43 288.98 71.7 289.43 71C288.99 70.99 288.45 70.65 287.87 70.49C287.29 70.33 286.68 70.54 286.85 71.21C287.03 71.87 287.46 72.62 287.31 73.17C287.62 72.99 288.08 72.42 287.47 71.65ZM285.82 72.75C285.78 72.44 286.1 72.44 286.17 72.51C286.24 72.58 286.34 72.79 286.24 72.89C286.13 73 285.84 73.01 285.82 72.75ZM288.82 69.54C288.78 69.22 289.1 69.22 289.17 69.29C289.24 69.36 289.35 69.57 289.24 69.68C289.13 69.79 288.85 69.79 288.82 69.54ZM279.21 73.28C279.18 72.96 279.5 72.96 279.57 73.03C279.64 73.1 279.74 73.31 279.64 73.42C279.53 73.53 279.24 73.53 279.21 73.28ZM288.89 63.22C288.85 62.9 289.17 62.9 289.24 62.97C289.31 63.04 289.42 63.25 289.31 63.36C289.21 63.46 288.92 63.47 288.89 63.22ZM278.51 66.17C278.48 65.85 278.79 65.85 278.86 65.92C278.93 65.99 279.04 66.2 278.93 66.31C278.83 66.41 278.54 66.42 278.51 66.17ZM281.76 62.53C281.73 62.22 282.04 62.22 282.11 62.29C282.18 62.36 282.29 62.57 282.18 62.67C282.08 62.78 281.79 62.79 281.76 62.53ZM286.34 71.21C286.01 71.7 285.73 71.41 285.64 71.21C285.63 71.17 285.65 71.06 285.82 70.87C285.98 70.69 286.69 69.91 287.03 69.54C287.09 69.49 287.26 69.43 287.47 69.54C287.73 69.68 287.7 69.95 287.62 70C287.34 70.2 286.68 70.72 286.34 71.21ZM284.87 70.51C284.66 70.46 284.35 70.38 284.15 70.33L284.06 70.59C284.34 70.82 285.04 71.18 285.57 70.84C286.1 70.5 286.54 69.77 286.69 69.45C286.85 68.97 287.04 67.92 286.55 67.54L286.24 67.98C286.34 68.09 286.55 68.38 286.55 68.68L286.17 68.17L285.94 68.43C286.04 68.58 286.27 68.94 286.34 69.21L285.75 68.61L285.57 68.87C285.75 68.94 286.11 69.17 286.17 69.54L285.45 69L285.1 69.29C285.31 69.47 285.75 69.86 285.75 70C285.75 70.14 285.16 69.75 284.87 69.54L284.75 69.68L285.45 70.33L284.59 69.91L284.31 70.21C284.45 70.29 284.69 70.43 284.87 70.51C284.97 70.56 285.06 70.59 285.1 70.59C285.15 70.59 285.04 70.56 284.87 70.51M286.47 67.54C286.5 67.38 286.38 67.15 286.24 66.92C285.75 67.81 284.47 69.7 283.22 70.21C283.29 70.29 283.52 70.43 283.8 70.33C284.12 70.13 286.43 67.7 286.47 67.54ZM282.18 69.91C282.18 69.91 279.71 68.05 279.9 67.89C280.09 67.73 281.1 65.07 279.64 64.89L280.88 63.66C281.09 64.22 281.92 65.01 283.62 63.66C284.59 64.27 286.45 65.72 286.17 66.66C285.89 67.6 284.01 69.37 283.11 70.14C282.95 70.14 282.35 70.09 282.18 69.91ZM279.46 64.8C279.23 64.89 278.68 64.98 278.37 64.61C278.54 64.67 278.95 64.73 279.21 64.45C279.48 64.17 280.02 63.6 280.25 63.36C280.35 63.13 280.49 62.65 280.16 62.53C280.49 62.62 281.05 62.97 280.65 63.66L279.46 64.8Z" stroke="#000000" stroke-opacity="1.000000" stroke-width="0.035119"/>
	<path id="Vector 531" d="" fill="#000000" fill-opacity="1.000000" fill-rule="nonzero"/>
	<path id="Vector 531" d="M279.09 64.11C274.26 63.77 264.17 64.69 261.51 70.42C258.86 76.15 245.94 72.81 239.81 70.42C236.29 68.3 227.84 65.49 222.16 71.23" stroke="#000000" stroke-opacity="1.000000" stroke-width="0.737493"/>
	<path id="Vector 532" d="M279.72 63.2C278.1 60.74 276.82 54.73 283.04 48.52C289.79 41.78 286.65 44.93 288.75 42.53" stroke="#000000" stroke-opacity="1.000000" stroke-width="0.737493"/>
	<path id="Vector 533" d="M221.62 71.68C221.03 72.33 219.27 73.46 216.9 72.79C217.52 71.87 219.33 70.37 221.62 71.68Z" fill="#000000" fill-opacity="1.000000" fill-rule="nonzero"/>
	<path id="Vector 533" d="M222.41 71L221.62 71.68C221.03 72.33 219.27 73.46 216.9 72.79C217.52 71.87 219.33 70.37 221.62 71.68" stroke="#000000" stroke-opacity="1.000000" stroke-width="0.737493"/>
	<path id="Vector 534" d="M223.62 69.01C221.56 69.29 220.68 69.1 219.13 67.18C220.16 66.8 222.51 66.62 223.62 69.01Z" fill="#000000" fill-opacity="1.000000" fill-rule="nonzero"/>
	<path id="Vector 534" d="M224.29 69.29L223.62 69.01C221.56 69.29 220.68 69.1 219.13 67.18C220.16 66.8 222.51 66.62 223.62 69.01" stroke="#000000" stroke-opacity="1.000000" stroke-width="0.280950"/>
	<path id="Vector 535" d="M230.58 66.73C228.51 67.02 227.63 66.83 226.08 64.9C227.12 64.52 229.46 64.34 230.58 66.73Z" fill="#000000" fill-opacity="1.000000" fill-rule="nonzero"/>
	<path id="Vector 535" d="M230.86 67.5L230.58 66.73C229.46 64.34 227.12 64.52 226.08 64.9C227.63 66.83 228.51 67.02 230.58 66.73" stroke="#000000" stroke-opacity="1.000000" stroke-width="0.280950"/>
	<path id="Vector 540" d="M236.42 67.92C234.48 67.17 233.8 66.58 233.38 64.15C234.47 64.31 236.61 65.29 236.42 67.92Z" fill="#000000" fill-opacity="1.000000" fill-rule="nonzero"/>
	<path id="Vector 540" d="M237.26 68.96L236.42 67.92C234.48 67.17 233.8 66.58 233.38 64.15C234.47 64.31 236.61 65.29 236.42 67.92" stroke="#000000" stroke-opacity="1.000000" stroke-width="0.280950"/>
	<path id="Vector 541" d="M239.08 69.1C237.55 67.68 237.14 66.88 237.65 64.47C238.6 65.02 240.23 66.72 239.08 69.1Z" fill="#000000" fill-opacity="1.000000" fill-rule="nonzero"/>
	<path id="Vector 541" d="M239.48 70.37L239.08 69.1C237.55 67.68 237.14 66.88 237.65 64.47C238.6 65.02 240.23 66.72 239.08 69.1" stroke="#000000" stroke-opacity="1.000000" stroke-width="0.280950"/>
	<path id="Vector 542" d="M242.55 72.15C240.92 73.46 240.07 73.75 237.76 72.9C238.44 72.03 240.37 70.68 242.55 72.15Z" fill="#000000" fill-opacity="1.000000" fill-rule="nonzero"/>
	<path id="Vector 542" d="M243.87 71.95L242.55 72.15C240.92 73.46 240.07 73.75 237.76 72.9C238.44 72.03 240.37 70.68 242.55 72.15" stroke="#000000" stroke-opacity="1.000000" stroke-width="0.280950"/>
	<path id="Vector 543" d="M244.38 71.32C242.5 70.41 241.88 69.77 241.65 67.31C242.73 67.56 244.78 68.72 244.38 71.32Z" fill="#000000" fill-opacity="1.000000" fill-rule="nonzero"/>
	<path id="Vector 543" d="M245.13 72.43L244.38 71.32C242.5 70.41 241.88 69.77 241.65 67.31C242.73 67.56 244.78 68.72 244.38 71.32" stroke="#000000" stroke-opacity="1.000000" stroke-width="0.280950"/>
	<path id="Vector 544" d="M246.7 73.31C245.25 74.81 244.44 75.21 242.03 74.65C242.61 73.71 244.34 72.12 246.7 73.31Z" fill="#000000" fill-opacity="1.000000" fill-rule="nonzero"/>
	<path id="Vector 544" d="M247.98 72.94L246.7 73.31C245.25 74.81 244.44 75.21 242.03 74.65C242.61 73.71 244.34 72.12 246.7 73.31" stroke="#000000" stroke-opacity="1.000000" stroke-width="0.280950"/>
	<path id="Vector 545" d="M249.74 72.39C247.71 71.92 246.95 71.43 246.18 69.09C247.29 69.09 249.54 69.76 249.74 72.39Z" fill="#000000" fill-opacity="1.000000" fill-rule="nonzero"/>
	<path id="Vector 545" d="M250.72 73.29L249.74 72.39C247.71 71.92 246.95 71.43 246.18 69.09C247.29 69.09 249.54 69.76 249.74 72.39" stroke="#000000" stroke-opacity="1.000000" stroke-width="0.280950"/>
	<path id="Vector 546" d="M253.55 72.58C251.52 72.11 250.76 71.62 250 69.28C251.1 69.28 253.36 69.95 253.55 72.58Z" fill="#000000" fill-opacity="1.000000" fill-rule="nonzero"/>
	<path id="Vector 546" d="M254.53 73.48L253.55 72.58C251.52 72.11 250.76 71.62 250 69.28C251.1 69.28 253.36 69.95 253.55 72.58" stroke="#000000" stroke-opacity="1.000000" stroke-width="0.280950"/>
	<path id="Vector 547" d="M257.44 72.28C255.36 72.14 254.54 71.78 253.41 69.58C254.5 69.41 256.83 69.72 257.44 72.28Z" fill="#000000" fill-opacity="1.000000" fill-rule="nonzero"/>
	<path id="Vector 547" d="M258.55 73.02L257.44 72.28C255.36 72.14 254.54 71.78 253.41 69.58C254.5 69.41 256.83 69.72 257.44 72.28" stroke="#000000" stroke-opacity="1.000000" stroke-width="0.280950"/>
	<path id="Vector 548" d="M260.07 70.07C258.03 70.52 257.14 70.4 255.44 68.6C256.44 68.14 258.77 67.78 260.07 70.07Z" fill="#000000" fill-opacity="1.000000" fill-rule="nonzero"/>
	<path id="Vector 548" d="M261.34 70.47L260.07 70.07C258.03 70.52 257.14 70.4 255.44 68.6C256.44 68.14 258.77 67.78 260.07 70.07" stroke="#000000" stroke-opacity="1.000000" stroke-width="0.280950"/>
	<path id="Vector 554" d="M262.9 67.22C261.06 68.21 260.17 68.34 258.05 67.08C258.89 66.36 261.02 65.37 262.9 67.22Z" fill="#000000" fill-opacity="1.000000" fill-rule="nonzero"/>
	<path id="Vector 554" d="M264.24 67.26L262.9 67.22C261.06 68.21 260.17 68.34 258.05 67.08C258.89 66.36 261.02 65.37 262.9 67.22" stroke="#000000" stroke-opacity="1.000000" stroke-width="0.280950"/>
	<path id="Vector 555" d="M266.03 65.33C264.19 66.32 263.3 66.45 261.18 65.19C262.01 64.46 264.15 63.48 266.03 65.33Z" fill="#000000" fill-opacity="1.000000" fill-rule="nonzero"/>
	<path id="Vector 555" d="M267.36 65.36L266.03 65.33C264.19 66.32 263.3 66.45 261.18 65.19C262.01 64.46 264.15 63.48 266.03 65.33" stroke="#000000" stroke-opacity="1.000000" stroke-width="0.280950"/>
	<path id="Vector 556" d="M269.85 64.21C267.9 64.96 267 64.98 265.05 63.46C265.97 62.85 268.21 62.14 269.85 64.21Z" fill="#000000" fill-opacity="1.000000" fill-rule="nonzero"/>
	<path id="Vector 556" d="M271.16 64.41L269.85 64.21C267.9 64.96 267 64.98 265.05 63.46C265.97 62.85 268.21 62.14 269.85 64.21" stroke="#000000" stroke-opacity="1.000000" stroke-width="0.280950"/>
	<path id="Vector 557" d="M274.05 63.6C272 64 271.11 63.87 269.45 62.04C270.46 61.6 272.79 61.28 274.05 63.6Z" fill="#000000" fill-opacity="1.000000" fill-rule="nonzero"/>
	<path id="Vector 557" d="M275.31 64.02L274.05 63.6C272 64 271.11 63.87 269.45 62.04C270.46 61.6 272.79 61.28 274.05 63.6" stroke="#000000" stroke-opacity="1.000000" stroke-width="0.280950"/>
	<path id="Vector 558" d="M276.75 63.15C274.78 62.47 274.08 61.91 273.57 59.49C274.67 59.61 276.84 60.52 276.75 63.15Z" fill="#000000" fill-opacity="1.000000" fill-rule="nonzero"/>
	<path id="Vector 558" d="M277.63 64.16L276.75 63.15C274.78 62.47 274.08 61.91 273.57 59.49C274.67 59.61 276.84 60.52 276.75 63.15" stroke="#000000" stroke-opacity="1.000000" stroke-width="0.280950"/>
	<path id="Vector 561" d="M277.63 59.05C275.66 58.37 274.96 57.8 274.45 55.38C275.54 55.51 277.72 56.41 277.63 59.05Z" fill="#000000" fill-opacity="1.000000" fill-rule="nonzero"/>
	<path id="Vector 561" d="M278.51 60.05L277.63 59.05C275.66 58.37 274.96 57.8 274.45 55.38C275.54 55.51 277.72 56.41 277.63 59.05" stroke="#000000" stroke-opacity="1.000000" stroke-width="0.280950"/>
	<path id="Vector 575" d="M279.67 59.87C280.18 57.85 280.68 57.11 283.05 56.39C283.02 57.5 282.3 59.74 279.67 59.87Z" fill="#000000" fill-opacity="1.000000" fill-rule="nonzero"/>
	<path id="Vector 575" d="M278.74 60.83L279.67 59.87C280.18 57.85 280.68 57.11 283.05 56.39C283.02 57.5 282.3 59.74 279.67 59.87" stroke="#000000" stroke-opacity="1.000000" stroke-width="0.280950"/>
	<path id="Vector 576" d="M279.24 56.75C279.76 54.73 280.26 53.98 282.62 53.27C282.6 54.37 281.88 56.61 279.24 56.75Z" fill="#000000" fill-opacity="1.000000" fill-rule="nonzero"/>
	<path id="Vector 576" d="M278.32 57.71L279.24 56.75C279.76 54.73 280.26 53.98 282.62 53.27C282.6 54.37 281.88 56.61 279.24 56.75" stroke="#000000" stroke-opacity="1.000000" stroke-width="0.280950"/>
	<path id="Vector 577" d="M281.35 52.1C282.74 50.55 283.54 50.12 285.96 50.59C285.42 51.55 283.74 53.2 281.35 52.1Z" fill="#000000" fill-opacity="1.000000" fill-rule="nonzero"/>
	<path id="Vector 577" d="M280.08 52.51L281.35 52.1C282.74 50.55 283.54 50.12 285.96 50.59C285.42 51.55 283.74 53.2 281.35 52.1" stroke="#000000" stroke-opacity="1.000000" stroke-width="0.280950"/>
	<path id="Vector 578" d="M283.98 48.69C285.38 47.14 286.17 46.72 288.59 47.19C288.05 48.15 286.37 49.8 283.98 48.69Z" fill="#000000" fill-opacity="1.000000" fill-rule="nonzero"/>
	<path id="Vector 578" d="M282.71 49.11L283.98 48.69C285.38 47.14 286.17 46.72 288.59 47.19C288.05 48.15 286.37 49.8 283.98 48.69" stroke="#000000" stroke-opacity="1.000000" stroke-width="0.280950"/>
	<path id="Vector 579" d="M287.28 45.56C288.68 44.01 289.47 43.59 291.89 44.06C291.35 45.02 289.67 46.67 287.28 45.56Z" fill="#000000" fill-opacity="1.000000" fill-rule="nonzero"/>
	<path id="Vector 579" d="M286.01 45.98L287.28 45.56C288.68 44.01 289.47 43.59 291.89 44.06C291.35 45.02 289.67 46.67 287.28 45.56" stroke="#000000" stroke-opacity="1.000000" stroke-width="0.280950"/>
	<path id="Vector 562" d="M277.63 55.54C275.66 54.85 274.96 54.29 274.45 51.87C275.54 52 277.72 52.9 277.63 55.54Z" fill="#000000" fill-opacity="1.000000" fill-rule="nonzero"/>
	<path id="Vector 562" d="M278.51 56.54L277.63 55.54C275.66 54.85 274.96 54.29 274.45 51.87C275.54 52 277.72 52.9 277.63 55.54" stroke="#000000" stroke-opacity="1.000000" stroke-width="0.280950"/>
	<path id="Vector 563" d="M278.47 52.8C276.5 52.11 275.8 51.55 275.29 49.13C276.39 49.26 278.56 50.16 278.47 52.8Z" fill="#000000" fill-opacity="1.000000" fill-rule="nonzero"/>
	<path id="Vector 563" d="M279.35 53.8L278.47 52.8C276.5 52.11 275.8 51.55 275.29 49.13C276.39 49.26 278.56 50.16 278.47 52.8" stroke="#000000" stroke-opacity="1.000000" stroke-width="0.280950"/>
	<path id="Vector 564" d="M280.05 50.24C278.23 49.22 277.65 48.54 277.57 46.07C278.63 46.39 280.6 47.66 280.05 50.24Z" fill="#000000" fill-opacity="1.000000" fill-rule="nonzero"/>
	<path id="Vector 564" d="M280.74 51.38L280.05 50.24C278.23 49.22 277.65 48.54 277.57 46.07C278.63 46.39 280.6 47.66 280.05 50.24" stroke="#000000" stroke-opacity="1.000000" stroke-width="0.280950"/>
	<path id="Vector 565" d="M281.63 48.12C280 46.83 279.52 46.07 279.83 43.62C280.83 44.09 282.58 45.66 281.63 48.12Z" fill="#000000" fill-opacity="1.000000" fill-rule="nonzero"/>
	<path id="Vector 565" d="M282.13 49.36L281.63 48.12C280 46.83 279.52 46.07 279.83 43.62C280.83 44.09 282.58 45.66 281.63 48.12" stroke="#000000" stroke-opacity="1.000000" stroke-width="0.280950"/>
	<path id="Vector 566" d="M283.71 45.88C282.07 44.59 281.6 43.83 281.91 41.38C282.9 41.85 284.66 43.42 283.71 45.88Z" fill="#000000" fill-opacity="1.000000" fill-rule="nonzero"/>
	<path id="Vector 566" d="M284.21 47.12L283.71 45.88C282.07 44.59 281.6 43.83 281.91 41.38C282.9 41.85 284.66 43.42 283.71 45.88" stroke="#000000" stroke-opacity="1.000000" stroke-width="0.280950"/>
	<path id="Vector 567" d="M285.85 44.09C284.21 42.8 283.74 42.04 284.05 39.59C285.04 40.06 286.8 41.63 285.85 44.09Z" fill="#000000" fill-opacity="1.000000" fill-rule="nonzero"/>
	<path id="Vector 567" d="M286.35 45.33L285.85 44.09C284.21 42.8 283.74 42.04 284.05 39.59C285.04 40.06 286.8 41.63 285.85 44.09" stroke="#000000" stroke-opacity="1.000000" stroke-width="0.280950"/>
	<path id="Vector 580" d="M288.52 42.81C288.79 40.74 289.21 39.94 291.47 38.95C291.57 40.05 291.12 42.36 288.52 42.81Z" fill="#000000" fill-opacity="1.000000" fill-rule="nonzero"/>
	<path id="Vector 580" d="M287.72 43.87L288.52 42.81C288.79 40.74 289.21 39.94 291.47 38.95C291.57 40.05 291.12 42.36 288.52 42.81" stroke="#000000" stroke-opacity="1.000000" stroke-width="0.280950"/>
	<path id="Vector 549" d="M262.91 69.66C263.81 71.54 263.9 72.44 262.54 74.5C261.85 73.63 260.97 71.45 262.91 69.66Z" fill="#000000" fill-opacity="1.000000" fill-rule="nonzero"/>
	<path id="Vector 549" d="M263.01 68.33L262.91 69.66C263.81 71.54 263.9 72.44 262.54 74.5C261.85 73.63 260.97 71.45 262.91 69.66" stroke="#000000" stroke-opacity="1.000000" stroke-width="0.280950"/>
	<path id="Vector 559" d="M259.63 72.57C258.83 74.5 258.22 75.16 255.78 75.52C255.97 74.44 257.01 72.32 259.63 72.57Z" fill="#000000" fill-opacity="1.000000" fill-rule="nonzero"/>
	<path id="Vector 559" d="M260.69 71.76L259.63 72.57C258.83 74.5 258.22 75.16 255.78 75.52C255.97 74.44 257.01 72.32 259.63 72.57" stroke="#000000" stroke-opacity="1.000000" stroke-width="0.280950"/>
	<path id="Vector 560" d="M253.43 74.03C251.99 75.54 251.18 75.94 248.78 75.39C249.35 74.45 251.08 72.85 253.43 74.03Z" fill="#000000" fill-opacity="1.000000" fill-rule="nonzero"/>
	<path id="Vector 560" d="M254.71 73.66L253.43 74.03C251.99 75.54 251.18 75.94 248.78 75.39C249.35 74.45 251.08 72.85 253.43 74.03" stroke="#000000" stroke-opacity="1.000000" stroke-width="0.280950"/>
	<path id="Vector 550" d="M265.65 67.31C266.55 69.19 266.64 70.09 265.28 72.15C264.59 71.28 263.71 69.1 265.65 67.31Z" fill="#000000" fill-opacity="1.000000" fill-rule="nonzero"/>
	<path id="Vector 550" d="M265.75 65.98L265.65 67.31C266.55 69.19 266.64 70.09 265.28 72.15C264.59 71.28 263.71 69.1 265.65 67.31" stroke="#000000" stroke-opacity="1.000000" stroke-width="0.280950"/>
	<path id="Vector 551" d="M268.25 66.15C269.15 68.03 269.24 68.93 267.88 70.99C267.19 70.12 266.31 67.94 268.25 66.15Z" fill="#000000" fill-opacity="1.000000" fill-rule="nonzero"/>
	<path id="Vector 551" d="M268.35 64.82L268.25 66.15C269.15 68.03 269.24 68.93 267.88 70.99C267.19 70.12 266.31 67.94 268.25 66.15" stroke="#000000" stroke-opacity="1.000000" stroke-width="0.280950"/>
	<path id="Vector 552" d="M271.94 65.55C272.84 67.43 272.92 68.33 271.56 70.39C270.88 69.52 270 67.34 271.94 65.55Z" fill="#000000" fill-opacity="1.000000" fill-rule="nonzero"/>
	<path id="Vector 552" d="M272.04 64.22L271.94 65.55C272.84 67.43 272.92 68.33 271.56 70.39C270.88 69.52 270 67.34 271.94 65.55" stroke="#000000" stroke-opacity="1.000000" stroke-width="0.280950"/>
	<path id="Vector 553" d="M275.68 65.58C275.86 67.66 275.63 68.53 273.64 69.99C273.3 68.93 273.24 66.58 275.68 65.58Z" fill="#000000" fill-opacity="1.000000" fill-rule="nonzero"/>
	<path id="Vector 553" d="M276.24 64.37L275.68 65.58C275.86 67.66 275.63 68.53 273.64 69.99C273.3 68.93 273.24 66.58 275.68 65.58" stroke="#000000" stroke-opacity="1.000000" stroke-width="0.280950"/>
	<path id="Vector 536" d="M230.94 69.5C229.97 71.35 229.31 71.96 226.85 72.11C227.13 71.04 228.35 69.03 230.94 69.5Z" fill="#000000" fill-opacity="1.000000" fill-rule="nonzero"/>
	<path id="Vector 536" d="M233 68.33L230.94 69.5C229.97 71.35 229.31 71.96 226.85 72.11C227.13 71.04 228.35 69.03 230.94 69.5" stroke="#000000" stroke-opacity="1.000000" stroke-width="0.280950"/>
	<path id="Vector 537" d="M232.86 70.51C234.94 70.58 235.78 70.91 236.98 73.07C235.89 73.27 233.55 73.05 232.86 70.51Z" fill="#000000" fill-opacity="1.000000" fill-rule="nonzero"/>
	<path id="Vector 537" d="M232.86 70.51C234.94 70.58 235.78 70.91 236.98 73.07C235.89 73.27 233.55 73.05 232.86 70.51L232.86 69.36L234.07 68.61" stroke="#000000" stroke-opacity="1.000000" stroke-width="0.280950"/>
	<path id="Vector 538" d="" fill="#000000" fill-opacity="1.000000" fill-rule="nonzero"/>
	<path id="Vector 538" d="M14.71 74.98C14.34 75.27 13.7 75.67 14.02 74.98C14.43 74.12 15.66 74.49 15.51 74.98C15.37 75.47 13.99 77.7 13.13 75.74C12.27 73.77 14.71 72.86 15.11 73C15.44 73.11 17.21 74.14 18.66 73.97C18.97 73.93 19.27 73.83 19.54 73.66C20.19 73.24 20.57 72.72 20.83 72.31C21.16 71.79 21.29 71.42 21.56 71.61M18.66 73.97C18.95 73.74 19.54 73.14 19.54 72.61M20.83 72.31C20.27 71.11 18.86 69.1 17.69 70.75C16.23 72.8 19.01 72.35 19.11 72.07C19.22 71.78 18.82 70.77 18.48 71.28" stroke="#000000" stroke-opacity="1.000000" stroke-width="0.737493"/>
	<path id="Vector 539" d="" fill="#000000" fill-opacity="1.000000" fill-rule="nonzero"/>
	<path id="Vector 539" d="M9.09 68.97C8.79 69.33 8.37 69.96 9.07 69.65C9.94 69.27 9.6 68.03 9.11 68.16C8.61 68.29 6.35 69.62 8.29 70.53C10.24 71.44 11.21 69.02 11.08 68.62C10.97 68.28 9.99 66.49 10.2 65.04C10.24 64.73 10.34 64.44 10.52 64.17C10.96 63.53 11.49 63.16 11.91 62.92C12.44 62.6 12.81 62.48 12.63 62.21M10.2 65.04C10.44 64.76 11.04 64.19 11.58 64.2M11.91 62.92C13.1 63.51 15.06 64.97 13.39 66.09C11.3 67.5 11.83 64.73 12.11 64.64C12.39 64.54 13.4 64.97 12.88 65.29" stroke="#000000" stroke-opacity="1.000000" stroke-width="0.737493"/>
	<path id="Vector" d="M7.53 73.84C7.53 73.84 9.44 75.93 9.72 76.23C9.95 76.47 10.5 76.43 10.5 76.19C10.5 76.14 10.47 76.07 10.4 76C10.05 75.6 7.96 73.45 7.77 73.28C7.64 73.15 7.32 73.21 7.32 73.45C7.32 73.55 7.38 73.68 7.53 73.84ZM8.47 75.44C8.29 74.71 7.56 75 7.33 75.16C7.23 75.23 7.14 75.4 7.14 75.59C7.14 75.81 7.26 76.04 7.6 76.14C7.92 76.2 8.5 76.18 8.5 75.66C8.5 75.59 8.49 75.52 8.47 75.44ZM17.96 75.82C18.06 75.93 18.35 75.94 18.38 75.68C18.38 75.67 18.38 75.65 18.38 75.64C18.38 75.37 18.09 75.37 18.03 75.44C17.98 75.49 17.91 75.6 17.91 75.71C17.91 75.75 17.92 75.79 17.96 75.82ZM9.82 74.79C9.82 75.18 10.08 75.46 10.28 75.58C10.26 75.5 10.25 75.41 10.25 75.32C10.25 75 10.39 74.62 10.53 74.24C10.61 74.03 10.68 73.82 10.74 73.61C10.76 73.53 10.77 73.46 10.77 73.39C10.77 72.9 10.23 72.75 9.72 72.89C9.14 73.05 8.6 73.39 8.16 73.4C8.61 74.1 9.3 73.83 9.6 73.61C9.34 73.84 9.28 74.21 9.28 74.42C9.28 74.46 9.28 74.48 9.28 74.51C9.48 74.63 9.93 74.26 10.12 74.05C9.9 74.33 9.82 74.58 9.82 74.79ZM11.35 75.3C11.46 75.4 11.75 75.41 11.77 75.16C11.78 75.14 11.78 75.12 11.78 75.11C11.78 74.84 11.49 74.84 11.42 74.91C11.37 74.96 11.31 75.08 11.31 75.18C11.31 75.22 11.32 75.27 11.35 75.3ZM9.97 72.4C10.25 72.6 10.91 73.12 11.25 73.61C11.58 74.1 11.86 73.82 11.95 73.61C11.95 73.61 11.95 73.6 11.95 73.59C11.95 73.54 11.92 73.43 11.77 73.28C11.61 73.1 10.9 72.31 10.56 71.94C10.5 71.9 10.33 71.83 10.12 71.94C9.97 72.03 9.92 72.16 9.92 72.26C9.92 72.33 9.94 72.38 9.97 72.4ZM12.02 73.24C12.55 73.58 13.25 73.22 13.53 73L13.44 72.73C13.24 72.78 12.93 72.86 12.72 72.92C12.62 72.96 12.53 73 12.49 73C12.49 73 12.48 73 12.48 72.99C12.48 72.99 12.58 72.96 12.72 72.92C12.9 72.83 13.14 72.69 13.28 72.61L13 72.31L12.14 72.73L12.85 72.08L12.72 71.94C12.43 72.15 11.84 72.54 11.84 72.4C11.84 72.26 12.28 71.87 12.49 71.7L12.14 71.4L11.42 71.94C11.48 71.58 11.84 71.35 12.02 71.28L11.84 71.01L11.25 71.61C11.32 71.34 11.55 70.98 11.65 70.84L11.42 70.57L11.04 71.08C11.04 70.79 11.25 70.49 11.35 70.38L11.04 69.94C10.8 70.12 10.72 70.46 10.72 70.82C10.72 71.2 10.81 71.61 10.9 71.86C11.05 72.18 11.49 72.9 12.02 73.24ZM11.12 69.94C11.16 70.1 13.47 72.54 13.79 72.73C14.07 72.83 14.3 72.69 14.37 72.61C13.12 72.11 11.84 70.21 11.35 69.33C11.23 69.53 11.12 69.73 11.12 69.88C11.12 69.9 11.12 69.92 11.12 69.94ZM14.48 72.54C14.64 72.54 15.24 72.5 15.41 72.31C15.41 72.31 17.7 70.59 17.7 70.32C17.7 70.31 17.7 70.3 17.69 70.29C17.58 70.2 17.18 69.22 17.18 68.4C17.18 67.85 17.36 67.36 17.96 67.29L16.71 66.06C16.5 66.62 15.67 67.41 13.97 66.06C13.07 66.63 11.39 67.93 11.39 68.86C11.39 68.93 11.4 69 11.42 69.06C11.7 70 13.58 71.77 14.48 72.54ZM8.35 72.08C8.46 72.19 8.74 72.2 8.77 71.94C8.77 71.93 8.77 71.91 8.77 71.9C8.77 71.63 8.49 71.63 8.42 71.7C8.37 71.75 8.31 71.86 8.31 71.97C8.31 72.01 8.32 72.05 8.35 72.08ZM18.66 68.71C18.76 68.82 19.05 68.83 19.08 68.57C19.08 68.56 19.08 68.54 19.08 68.53C19.08 68.26 18.79 68.26 18.73 68.33C18.68 68.37 18.61 68.49 18.61 68.59C18.61 68.64 18.63 68.68 18.66 68.71ZM16.94 66.06L18.13 67.2C18.36 67.3 18.91 67.39 19.22 67.01C19.05 67.07 18.64 67.13 18.38 66.85C18.11 66.57 17.57 66.01 17.34 65.76C17.29 65.64 17.22 65.45 17.22 65.28C17.22 65.13 17.27 64.99 17.43 64.94C17.18 65 16.8 65.22 16.8 65.62C16.8 65.75 16.84 65.89 16.94 66.06ZM8.28 65.76C8.39 65.87 8.67 65.87 8.7 65.62C8.7 65.61 8.7 65.59 8.7 65.58C8.7 65.31 8.42 65.31 8.35 65.38C8.3 65.43 8.24 65.54 8.24 65.64C8.24 65.69 8.25 65.73 8.28 65.76ZM15.41 65.08C15.51 65.18 15.8 65.19 15.83 64.94C15.83 64.92 15.83 64.91 15.83 64.89C15.83 64.62 15.55 64.62 15.48 64.69C15.43 64.74 15.36 64.86 15.36 64.96C15.36 65 15.38 65.05 15.41 65.08Z" fill="#000000" fill-opacity="1.000000" fill-rule="evenodd"/>
	<path id="Vector" d="M9.72 76.23C10 76.53 10.76 76.4 10.4 76C10.05 75.6 7.96 73.45 7.77 73.28C7.58 73.1 7.02 73.29 7.53 73.84C7.53 73.84 9.44 75.93 9.72 76.23ZM7.6 76.14C6.98 75.96 7.1 75.31 7.33 75.16C7.56 75 8.29 74.71 8.47 75.44C8.66 76.17 7.96 76.21 7.6 76.14ZM10.12 74.05C9.93 74.26 9.48 74.63 9.28 74.51C9.26 74.32 9.3 73.88 9.6 73.61C9.3 73.83 8.61 74.1 8.16 73.4C8.6 73.39 9.14 73.05 9.72 72.89C10.3 72.73 10.91 72.94 10.74 73.61C10.56 74.28 10.13 75.03 10.28 75.58C9.97 75.39 9.51 74.82 10.12 74.05ZM11.77 75.16C11.81 74.84 11.49 74.84 11.42 74.91C11.35 74.98 11.25 75.19 11.35 75.3C11.46 75.4 11.75 75.41 11.77 75.16ZM8.77 71.94C8.81 71.63 8.49 71.63 8.42 71.7C8.35 71.77 8.25 71.98 8.35 72.08C8.46 72.19 8.74 72.2 8.77 71.94ZM18.38 75.68C18.41 75.37 18.1 75.37 18.03 75.44C17.96 75.51 17.85 75.72 17.96 75.82C18.06 75.93 18.35 75.94 18.38 75.68ZM8.7 65.62C8.74 65.31 8.42 65.31 8.35 65.38C8.28 65.45 8.17 65.66 8.28 65.76C8.39 65.87 8.67 65.87 8.7 65.62ZM19.08 68.57C19.11 68.26 18.8 68.26 18.73 68.33C18.66 68.4 18.55 68.61 18.66 68.71C18.76 68.82 19.05 68.83 19.08 68.57ZM15.83 64.94C15.87 64.62 15.55 64.62 15.48 64.69C15.41 64.76 15.3 64.97 15.41 65.08C15.51 65.18 15.8 65.19 15.83 64.94ZM11.25 73.61C11.58 74.1 11.86 73.82 11.95 73.61C11.96 73.58 11.94 73.46 11.77 73.28C11.61 73.1 10.9 72.31 10.56 71.94C10.5 71.9 10.33 71.83 10.12 71.94C9.86 72.08 9.9 72.35 9.97 72.4C10.25 72.6 10.91 73.12 11.25 73.61ZM12.72 72.92C12.93 72.86 13.24 72.78 13.44 72.73L13.53 73C13.25 73.22 12.55 73.58 12.02 73.24C11.49 72.9 11.05 72.18 10.9 71.86C10.74 71.38 10.55 70.32 11.04 69.94L11.35 70.38C11.25 70.49 11.04 70.79 11.04 71.08L11.42 70.57L11.65 70.84C11.55 70.98 11.32 71.34 11.25 71.61L11.84 71.01L12.02 71.28C11.84 71.35 11.48 71.58 11.42 71.94L12.14 71.4L12.49 71.7C12.28 71.87 11.84 72.26 11.84 72.4C11.84 72.54 12.43 72.15 12.72 71.94L12.85 72.08L12.14 72.73L13 72.31L13.28 72.61C13.14 72.69 12.9 72.83 12.72 72.92C12.62 72.96 12.53 73 12.49 73C12.45 73 12.55 72.96 12.72 72.92M11.12 69.94C11.09 69.78 11.21 69.55 11.35 69.33C11.84 70.21 13.12 72.11 14.37 72.61C14.3 72.69 14.07 72.83 13.79 72.73C13.47 72.54 11.16 70.1 11.12 69.94ZM15.41 72.31C15.41 72.31 17.89 70.45 17.69 70.29C17.5 70.13 16.49 67.47 17.96 67.29L16.71 66.06C16.5 66.62 15.67 67.41 13.97 66.06C13 66.67 11.14 68.12 11.42 69.06C11.7 70 13.58 71.77 14.48 72.54C14.64 72.54 15.24 72.5 15.41 72.31ZM18.13 67.2C18.36 67.3 18.91 67.39 19.22 67.01C19.05 67.07 18.64 67.13 18.38 66.85C18.11 66.57 17.57 66.01 17.34 65.76C17.24 65.54 17.11 65.05 17.43 64.94C17.1 65.03 16.54 65.37 16.94 66.06L18.13 67.2Z" stroke="#000000" stroke-opacity="1.000000" stroke-width="0.035119"/>
	<path id="Vector 531" d="" fill="#000000" fill-opacity="1.000000" fill-rule="nonzero"/>
	<path id="Vector 531" d="M18.5 66.52C23.33 66.18 33.42 67.09 36.08 72.82C38.73 78.55 51.65 75.21 57.78 72.82C61.3 70.7 69.75 67.9 75.43 73.63" stroke="#000000" stroke-opacity="1.000000" stroke-width="0.737493"/>
	<path id="Vector 532" d="M17.87 65.6C19.49 63.15 20.77 57.13 14.55 50.92C7.8 44.18 10.95 47.33 8.85 44.93" stroke="#000000" stroke-opacity="1.000000" stroke-width="0.737493"/>
	<path id="Vector 533" d="M75.97 74.09C76.56 74.74 78.32 75.87 80.69 75.19C80.07 74.28 78.26 72.78 75.97 74.09Z" fill="#000000" fill-opacity="1.000000" fill-rule="nonzero"/>
	<path id="Vector 533" d="M75.18 73.4L75.97 74.09C76.56 74.74 78.32 75.87 80.69 75.19C80.07 74.28 78.26 72.78 75.97 74.09" stroke="#000000" stroke-opacity="1.000000" stroke-width="0.737493"/>
	<path id="Vector 534" d="M73.97 71.41C76.04 71.7 76.91 71.51 78.46 69.58C77.43 69.2 75.08 69.02 73.97 71.41Z" fill="#000000" fill-opacity="1.000000" fill-rule="nonzero"/>
	<path id="Vector 534" d="M73.3 71.7L73.97 71.41C76.04 71.7 76.91 71.51 78.46 69.58C77.43 69.2 75.08 69.02 73.97 71.41" stroke="#000000" stroke-opacity="1.000000" stroke-width="0.280950"/>
	<path id="Vector 535" d="M67.01 69.14C69.08 69.42 69.96 69.23 71.51 67.31C70.47 66.92 68.13 66.75 67.01 69.14Z" fill="#000000" fill-opacity="1.000000" fill-rule="nonzero"/>
	<path id="Vector 535" d="M66.74 69.91L67.01 69.14C68.13 66.75 70.47 66.92 71.51 67.31C69.96 69.23 69.08 69.42 67.01 69.14" stroke="#000000" stroke-opacity="1.000000" stroke-width="0.280950"/>
	<path id="Vector 540" d="M61.17 70.33C63.11 69.57 63.79 68.98 64.22 66.55C63.12 66.71 60.99 67.7 61.17 70.33Z" fill="#000000" fill-opacity="1.000000" fill-rule="nonzero"/>
	<path id="Vector 540" d="M60.33 71.36L61.17 70.33C63.11 69.57 63.79 68.98 64.22 66.55C63.12 66.71 60.99 67.7 61.17 70.33" stroke="#000000" stroke-opacity="1.000000" stroke-width="0.280950"/>
	<path id="Vector 541" d="M58.51 71.5C60.04 70.08 60.45 69.28 59.94 66.87C58.99 67.42 57.36 69.13 58.51 71.5Z" fill="#000000" fill-opacity="1.000000" fill-rule="nonzero"/>
	<path id="Vector 541" d="M58.11 72.78L58.51 71.5C60.04 70.08 60.45 69.28 59.94 66.87C58.99 67.42 57.36 69.13 58.51 71.5" stroke="#000000" stroke-opacity="1.000000" stroke-width="0.280950"/>
	<path id="Vector 542" d="M55.04 74.56C56.67 75.86 57.52 76.15 59.83 75.3C59.15 74.44 57.22 73.08 55.04 74.56Z" fill="#000000" fill-opacity="1.000000" fill-rule="nonzero"/>
	<path id="Vector 542" d="M53.72 74.35L55.04 74.56C56.67 75.86 57.52 76.15 59.83 75.3C59.15 74.44 57.22 73.08 55.04 74.56" stroke="#000000" stroke-opacity="1.000000" stroke-width="0.280950"/>
	<path id="Vector 543" d="M53.21 73.73C55.09 72.82 55.72 72.17 55.94 69.72C54.86 69.97 52.81 71.12 53.21 73.73Z" fill="#000000" fill-opacity="1.000000" fill-rule="nonzero"/>
	<path id="Vector 543" d="M52.46 74.83L53.21 73.73C55.09 72.82 55.72 72.17 55.94 69.72C54.86 69.97 52.81 71.12 53.21 73.73" stroke="#000000" stroke-opacity="1.000000" stroke-width="0.280950"/>
	<path id="Vector 544" d="M50.9 75.72C52.35 77.22 53.15 77.61 55.56 77.06C54.98 76.11 53.25 74.53 50.9 75.72Z" fill="#000000" fill-opacity="1.000000" fill-rule="nonzero"/>
	<path id="Vector 544" d="M49.61 75.35L50.9 75.72C52.35 77.22 53.15 77.61 55.56 77.06C54.98 76.11 53.25 74.53 50.9 75.72" stroke="#000000" stroke-opacity="1.000000" stroke-width="0.280950"/>
	<path id="Vector 545" d="M47.85 74.79C49.88 74.32 50.64 73.84 51.41 71.49C50.3 71.5 48.05 72.16 47.85 74.79Z" fill="#000000" fill-opacity="1.000000" fill-rule="nonzero"/>
	<path id="Vector 545" d="M46.87 75.7L47.85 74.79C49.88 74.32 50.64 73.84 51.41 71.49C50.3 71.5 48.05 72.16 47.85 74.79" stroke="#000000" stroke-opacity="1.000000" stroke-width="0.280950"/>
	<path id="Vector 546" d="M44.04 74.98C46.07 74.51 46.83 74.02 47.59 71.68C46.49 71.68 44.23 72.35 44.04 74.98Z" fill="#000000" fill-opacity="1.000000" fill-rule="nonzero"/>
	<path id="Vector 546" d="M43.06 75.88L44.04 74.98C46.07 74.51 46.83 74.02 47.59 71.68C46.49 71.68 44.23 72.35 44.04 74.98" stroke="#000000" stroke-opacity="1.000000" stroke-width="0.280950"/>
	<path id="Vector 547" d="M40.15 74.68C42.23 74.54 43.05 74.18 44.18 71.99C43.09 71.82 40.76 72.12 40.15 74.68Z" fill="#000000" fill-opacity="1.000000" fill-rule="nonzero"/>
	<path id="Vector 547" d="M39.04 75.42L40.15 74.68C42.23 74.54 43.05 74.18 44.18 71.99C43.09 71.82 40.76 72.12 40.15 74.68" stroke="#000000" stroke-opacity="1.000000" stroke-width="0.280950"/>
	<path id="Vector 548" d="M37.52 72.47C39.56 72.92 40.45 72.8 42.15 71.01C41.15 70.54 38.82 70.18 37.52 72.47Z" fill="#000000" fill-opacity="1.000000" fill-rule="nonzero"/>
	<path id="Vector 548" d="M36.25 72.87L37.52 72.47C39.56 72.92 40.45 72.8 42.15 71.01C41.15 70.54 38.82 70.18 37.52 72.47" stroke="#000000" stroke-opacity="1.000000" stroke-width="0.280950"/>
	<path id="Vector 554" d="M34.69 69.63C36.53 70.61 37.42 70.74 39.54 69.48C38.7 68.76 36.57 67.78 34.69 69.63Z" fill="#000000" fill-opacity="1.000000" fill-rule="nonzero"/>
	<path id="Vector 554" d="M33.35 69.66L34.69 69.63C36.53 70.61 37.42 70.74 39.54 69.48C38.7 68.76 36.57 67.78 34.69 69.63" stroke="#000000" stroke-opacity="1.000000" stroke-width="0.280950"/>
	<path id="Vector 555" d="M31.56 67.73C33.4 68.72 34.29 68.85 36.41 67.59C35.58 66.86 33.44 65.88 31.56 67.73Z" fill="#000000" fill-opacity="1.000000" fill-rule="nonzero"/>
	<path id="Vector 555" d="M30.23 67.77L31.56 67.73C33.4 68.72 34.29 68.85 36.41 67.59C35.58 66.86 33.44 65.88 31.56 67.73" stroke="#000000" stroke-opacity="1.000000" stroke-width="0.280950"/>
	<path id="Vector 556" d="M27.74 66.61C29.69 67.36 30.59 67.38 32.54 65.87C31.62 65.25 29.38 64.54 27.74 66.61Z" fill="#000000" fill-opacity="1.000000" fill-rule="nonzero"/>
	<path id="Vector 556" d="M26.43 66.81L27.74 66.61C29.69 67.36 30.59 67.38 32.54 65.87C31.62 65.25 29.38 64.54 27.74 66.61" stroke="#000000" stroke-opacity="1.000000" stroke-width="0.280950"/>
	<path id="Vector 557" d="M23.54 66C25.59 66.41 26.48 66.27 28.14 64.44C27.13 64 24.8 63.68 23.54 66Z" fill="#000000" fill-opacity="1.000000" fill-rule="nonzero"/>
	<path id="Vector 557" d="M22.28 66.42L23.54 66C25.59 66.41 26.48 66.27 28.14 64.44C27.13 64 24.8 63.68 23.54 66" stroke="#000000" stroke-opacity="1.000000" stroke-width="0.280950"/>
	<path id="Vector 558" d="M20.84 65.56C22.81 64.88 23.51 64.31 24.02 61.9C22.92 62.02 20.75 62.92 20.84 65.56Z" fill="#000000" fill-opacity="1.000000" fill-rule="nonzero"/>
	<path id="Vector 558" d="M19.96 66.56L20.84 65.56C22.81 64.88 23.51 64.31 24.02 61.9C22.92 62.02 20.75 62.92 20.84 65.56" stroke="#000000" stroke-opacity="1.000000" stroke-width="0.280950"/>
	<path id="Vector 561" d="M19.96 61.45C21.93 60.77 22.63 60.2 23.14 57.79C22.05 57.91 19.87 58.82 19.96 61.45Z" fill="#000000" fill-opacity="1.000000" fill-rule="nonzero"/>
	<path id="Vector 561" d="M19.09 62.46L19.96 61.45C21.93 60.77 22.63 60.2 23.14 57.79C22.05 57.91 19.87 58.82 19.96 61.45" stroke="#000000" stroke-opacity="1.000000" stroke-width="0.280950"/>
	<path id="Vector 575" d="M17.92 62.28C17.41 60.25 16.91 59.51 14.54 58.8C14.57 59.9 15.29 62.14 17.92 62.28Z" fill="#000000" fill-opacity="1.000000" fill-rule="nonzero"/>
	<path id="Vector 575" d="M18.85 63.24L17.92 62.28C17.41 60.25 16.91 59.51 14.54 58.8C14.57 59.9 15.29 62.14 17.92 62.28" stroke="#000000" stroke-opacity="1.000000" stroke-width="0.280950"/>
	<path id="Vector 576" d="M18.35 59.15C17.83 57.13 17.33 56.38 14.97 55.67C15 56.77 15.71 59.01 18.35 59.15Z" fill="#000000" fill-opacity="1.000000" fill-rule="nonzero"/>
	<path id="Vector 576" d="M19.27 60.11L18.35 59.15C17.83 57.13 17.33 56.38 14.97 55.67C15 56.77 15.71 59.01 18.35 59.15" stroke="#000000" stroke-opacity="1.000000" stroke-width="0.280950"/>
	<path id="Vector 577" d="M16.24 54.5C14.85 52.95 14.06 52.52 11.63 52.99C12.17 53.96 13.85 55.6 16.24 54.5Z" fill="#000000" fill-opacity="1.000000" fill-rule="nonzero"/>
	<path id="Vector 577" d="M17.51 54.92L16.24 54.5C14.85 52.95 14.06 52.52 11.63 52.99C12.17 53.96 13.85 55.6 16.24 54.5" stroke="#000000" stroke-opacity="1.000000" stroke-width="0.280950"/>
	<path id="Vector 578" d="M13.61 51.09C12.21 49.54 11.42 49.12 9 49.59C9.54 50.55 11.22 52.2 13.61 51.09Z" fill="#000000" fill-opacity="1.000000" fill-rule="nonzero"/>
	<path id="Vector 578" d="M14.88 51.51L13.61 51.09C12.21 49.54 11.42 49.12 9 49.59C9.54 50.55 11.22 52.2 13.61 51.09" stroke="#000000" stroke-opacity="1.000000" stroke-width="0.280950"/>
	<path id="Vector 579" d="M10.31 47.97C8.91 46.42 8.12 45.99 5.7 46.46C6.24 47.42 7.92 49.07 10.31 47.97Z" fill="#000000" fill-opacity="1.000000" fill-rule="nonzero"/>
	<path id="Vector 579" d="M11.58 48.38L10.31 47.97C8.91 46.42 8.12 45.99 5.7 46.46C6.24 47.42 7.92 49.07 10.31 47.97" stroke="#000000" stroke-opacity="1.000000" stroke-width="0.280950"/>
	<path id="Vector 562" d="M19.96 57.94C21.93 57.25 22.63 56.69 23.14 54.27C22.05 54.4 19.87 55.3 19.96 57.94Z" fill="#000000" fill-opacity="1.000000" fill-rule="nonzero"/>
	<path id="Vector 562" d="M19.09 58.94L19.96 57.94C21.93 57.25 22.63 56.69 23.14 54.27C22.05 54.4 19.87 55.3 19.96 57.94" stroke="#000000" stroke-opacity="1.000000" stroke-width="0.280950"/>
	<path id="Vector 563" d="M19.12 55.2C21.09 54.52 21.79 53.95 22.3 51.54C21.2 51.66 19.03 52.56 19.12 55.2Z" fill="#000000" fill-opacity="1.000000" fill-rule="nonzero"/>
	<path id="Vector 563" d="M18.24 56.21L19.12 55.2C21.09 54.52 21.79 53.95 22.3 51.54C21.2 51.66 19.03 52.56 19.12 55.2" stroke="#000000" stroke-opacity="1.000000" stroke-width="0.280950"/>
	<path id="Vector 564" d="M17.54 52.64C19.36 51.62 19.95 50.94 20.02 48.47C18.96 48.79 16.99 50.06 17.54 52.64Z" fill="#000000" fill-opacity="1.000000" fill-rule="nonzero"/>
	<path id="Vector 564" d="M16.85 53.79L17.54 52.64C19.36 51.62 19.95 50.94 20.02 48.47C18.96 48.79 16.99 50.06 17.54 52.64" stroke="#000000" stroke-opacity="1.000000" stroke-width="0.280950"/>
	<path id="Vector 565" d="M15.96 50.52C17.59 49.23 18.07 48.47 17.76 46.02C16.76 46.5 15.01 48.06 15.96 50.52Z" fill="#000000" fill-opacity="1.000000" fill-rule="nonzero"/>
	<path id="Vector 565" d="M15.46 51.76L15.96 50.52C17.59 49.23 18.07 48.47 17.76 46.02C16.76 46.5 15.01 48.06 15.96 50.52" stroke="#000000" stroke-opacity="1.000000" stroke-width="0.280950"/>
	<path id="Vector 566" d="M13.88 48.28C15.52 46.99 15.99 46.23 15.68 43.78C14.69 44.26 12.93 45.82 13.88 48.28Z" fill="#000000" fill-opacity="1.000000" fill-rule="nonzero"/>
	<path id="Vector 566" d="M13.38 49.52L13.88 48.28C15.52 46.99 15.99 46.23 15.68 43.78C14.69 44.26 12.93 45.82 13.88 48.28" stroke="#000000" stroke-opacity="1.000000" stroke-width="0.280950"/>
	<path id="Vector 567" d="M11.74 46.49C13.38 45.2 13.85 44.44 13.54 41.99C12.54 42.47 10.79 44.03 11.74 46.49Z" fill="#000000" fill-opacity="1.000000" fill-rule="nonzero"/>
	<path id="Vector 567" d="M11.24 47.73L11.74 46.49C13.38 45.2 13.85 44.44 13.54 41.99C12.54 42.47 10.79 44.03 11.74 46.49" stroke="#000000" stroke-opacity="1.000000" stroke-width="0.280950"/>
	<path id="Vector 580" d="M9.07 45.21C8.8 43.14 8.39 42.34 6.12 41.35C6.02 42.45 6.47 44.76 9.07 45.21Z" fill="#000000" fill-opacity="1.000000" fill-rule="nonzero"/>
	<path id="Vector 580" d="M9.87 46.27L9.07 45.21C8.8 43.14 8.39 42.34 6.12 41.35C6.02 42.45 6.47 44.76 9.07 45.21" stroke="#000000" stroke-opacity="1.000000" stroke-width="0.280950"/>
	<path id="Vector 549" d="M34.68 72.06C33.78 73.95 33.69 74.84 35.05 76.9C35.74 76.03 36.62 73.85 34.68 72.06Z" fill="#000000" fill-opacity="1.000000" fill-rule="nonzero"/>
	<path id="Vector 549" d="M34.58 70.73L34.68 72.06C33.78 73.95 33.69 74.84 35.05 76.9C35.74 76.03 36.62 73.85 34.68 72.06" stroke="#000000" stroke-opacity="1.000000" stroke-width="0.280950"/>
	<path id="Vector 559" d="M37.96 74.98C38.76 76.9 39.37 77.57 41.81 77.93C41.62 76.84 40.58 74.73 37.96 74.98Z" fill="#000000" fill-opacity="1.000000" fill-rule="nonzero"/>
	<path id="Vector 559" d="M36.9 74.16L37.96 74.98C38.76 76.9 39.37 77.57 41.81 77.93C41.62 76.84 40.58 74.73 37.96 74.98" stroke="#000000" stroke-opacity="1.000000" stroke-width="0.280950"/>
	<path id="Vector 560" d="M44.16 76.44C45.6 77.94 46.41 78.34 48.82 77.79C48.25 76.85 46.52 75.25 44.16 76.44Z" fill="#000000" fill-opacity="1.000000" fill-rule="nonzero"/>
	<path id="Vector 560" d="M42.88 76.06L44.16 76.44C45.6 77.94 46.41 78.34 48.82 77.79C48.25 76.85 46.52 75.25 44.16 76.44" stroke="#000000" stroke-opacity="1.000000" stroke-width="0.280950"/>
	<path id="Vector 550" d="M31.94 69.71C31.04 71.59 30.95 72.49 32.31 74.55C33 73.68 33.88 71.5 31.94 69.71Z" fill="#000000" fill-opacity="1.000000" fill-rule="nonzero"/>
	<path id="Vector 550" d="M31.84 68.38L31.94 69.71C31.04 71.59 30.95 72.49 32.31 74.55C33 73.68 33.88 71.5 31.94 69.71" stroke="#000000" stroke-opacity="1.000000" stroke-width="0.280950"/>
	<path id="Vector 551" d="M29.34 68.55C28.44 70.44 28.35 71.33 29.72 73.39C30.4 72.52 31.28 70.34 29.34 68.55Z" fill="#000000" fill-opacity="1.000000" fill-rule="nonzero"/>
	<path id="Vector 551" d="M29.24 67.22L29.34 68.55C28.44 70.44 28.35 71.33 29.72 73.39C30.4 72.52 31.28 70.34 29.34 68.55" stroke="#000000" stroke-opacity="1.000000" stroke-width="0.280950"/>
	<path id="Vector 552" d="M25.65 67.95C24.75 69.84 24.67 70.73 26.03 72.79C26.71 71.92 27.59 69.74 25.65 67.95Z" fill="#000000" fill-opacity="1.000000" fill-rule="nonzero"/>
	<path id="Vector 552" d="M25.55 66.62L25.65 67.95C24.75 69.84 24.67 70.73 26.03 72.79C26.71 71.92 27.59 69.74 25.65 67.95" stroke="#000000" stroke-opacity="1.000000" stroke-width="0.280950"/>
	<path id="Vector 553" d="M21.91 67.99C21.73 70.07 21.96 70.94 23.95 72.39C24.29 71.34 24.35 68.99 21.91 67.99Z" fill="#000000" fill-opacity="1.000000" fill-rule="nonzero"/>
	<path id="Vector 553" d="M21.35 66.78L21.91 67.99C21.73 70.07 21.96 70.94 23.95 72.39C24.29 71.34 24.35 68.99 21.91 67.99" stroke="#000000" stroke-opacity="1.000000" stroke-width="0.280950"/>
	<path id="Vector 536" d="M66.65 71.9C67.62 73.75 68.28 74.36 70.74 74.51C70.46 73.44 69.24 71.43 66.65 71.9Z" fill="#000000" fill-opacity="1.000000" fill-rule="nonzero"/>
	<path id="Vector 536" d="M64.59 70.73L66.65 71.9C67.62 73.75 68.28 74.36 70.74 74.51C70.46 73.44 69.24 71.43 66.65 71.9" stroke="#000000" stroke-opacity="1.000000" stroke-width="0.280950"/>
	<path id="Vector 537" d="M64.74 72.91C62.65 72.98 61.81 73.31 60.61 75.47C61.7 75.68 64.04 75.46 64.74 72.91Z" fill="#000000" fill-opacity="1.000000" fill-rule="nonzero"/>
	<path id="Vector 537" d="M64.74 72.91C62.65 72.98 61.81 73.31 60.61 75.47C61.7 75.68 64.04 75.46 64.74 72.91L64.74 71.77L63.52 71.01" stroke="#000000" stroke-opacity="1.000000" stroke-width="0.280950"/>
</svg>
