<svg width="17.000000" height="15.000000" viewBox="0 0 17 15" fill="none" xmlns="http://www.w3.org/2000/svg" xmlns:xlink="http://www.w3.org/1999/xlink">
	<desc>
			Created with Pixso.
	</desc>
	<defs/>
	<path id="Telegram" d="M4.94 8.63L13.2 3.16C13.25 3.11 13.37 3.03 13.43 3.02C13.51 3.01 13.58 3.01 13.58 3.16C13.58 3.27 13.44 3.42 13.36 3.48L6.67 9.83C6.54 9.94 6.28 10.26 6.27 10.67C6.26 11.07 6.27 12.84 6.27 13.68C6.29 13.83 6.4 14.08 6.67 13.81C6.94 13.55 8.08 12.42 8.61 11.89C8.69 11.81 8.9 11.7 9.16 11.89C9.42 12.08 11.91 13.86 13.12 14.73C13.53 15.01 14.43 15.32 14.75 14.22L14.82 13.76L16.99 0.99C17.03 0.61 16.88 -0.11 15.95 0.01C15.88 0.02 15.72 0.07 15.56 0.14C15.4 0.21 7.95 3.49 4.25 5.11L0.49 6.73C0.13 6.95 -0.39 7.51 0.43 7.98L3.62 9.02C3.78 9.11 4.28 9.14 4.94 8.63Z" fill="#000000" fill-opacity="1.000000" fill-rule="nonzero"/>
</svg>
