<svg width="22.000000" height="13.000000" viewBox="0 0 22 13" fill="none" xmlns="http://www.w3.org/2000/svg" xmlns:xlink="http://www.w3.org/1999/xlink">
	<desc>
			Created with Pixso.
	</desc>
	<defs/>
	<path id="VKontakte" d="M3.77 0.43L0.42 0.43C0.22 0.43 -0.14 0.57 0.05 1.16C0.29 1.89 4.2 11.85 10.17 12.89C11.05 13.08 12.8 13.14 12.82 11.93C12.83 10.42 12.88 9.5 13.81 9.84C14.56 10.11 15.75 11.45 16.25 12.09C16.48 12.37 17.11 12.93 17.81 12.93L21.33 12.93C21.7 12.85 22.32 12.47 21.79 11.61C21.26 10.74 19.4 8.83 18.54 7.99C18.31 7.73 17.97 7.09 18.4 6.53C18.94 5.82 21.69 2.34 21.89 1.38C22.09 0.42 21.76 0.47 21.48 0.43C21.27 0.41 19.09 0.42 18.03 0.43C17.9 0.43 17.59 0.51 17.39 0.8C17.13 1.16 15.44 4.64 14.54 5.41C13.64 6.18 12.9 7.21 12.82 5.41C12.75 3.97 12.79 1.91 12.82 1.05C12.8 0.75 12.56 0.12 11.66 0.04C10.77 -0.04 9.11 0.01 8.4 0.04C8.18 0.06 7.71 0.15 7.6 0.38C7.46 0.68 7.55 0.93 7.89 1.14C8.23 1.34 8.51 1.53 8.62 2.6C8.7 3.45 8.65 5.01 8.62 5.69C8.53 6.17 8.18 6.93 7.5 6.15C6.65 5.17 5.3 3.2 4.67 1.14C4.63 0.9 4.4 0.43 3.77 0.43Z" fill="#000000" fill-opacity="1.000000" fill-rule="nonzero"/>
</svg>
